<?xml version="1.0" encoding="UTF-8"?>
<!-- Generator: visioncortex VTracer 0.6.5 -->
<svg version="1.1" xmlns="http://www.w3.org/2000/svg" width="1024" height="1024">

<path d="M0 0 C3.48 0.02 6.96 0.02 10.44 0.02 C26.39 0.04 41.74 0.65 57.48 3.46 C58.75 3.68 60.01 3.91 61.32 4.14 C113.76 13.64 172.55 35.58 207.01 78.27 C214.91 87.87 223.27 96.01 233.36 103.34 C257.91 121.31 273.64 148.16 286.51 175.3 C287.43 177.23 288.4 179.14 289.37 181.05 C301.59 205.53 308.84 232.33 313.42 259.21 C313.49 259.62 313.49 259.62 313.85 261.71 C316.21 275.93 316.84 289.85 316.7 304.26 C316.67 307.66 316.66 311.07 316.66 314.48 C316.6 330.58 316.09 346.21 313.11 362.08 C312.99 362.69 312.99 362.69 312.42 365.79 C311.77 369.26 311.1 372.74 310.42 376.21 C310.26 377.03 310.1 377.85 309.94 378.7 C301.51 421.45 280.7 464.32 253.42 498.21 C252.76 499.07 252.09 499.94 251.41 500.83 C241.32 513.92 230.59 522.08 216.42 530.21 C204.44 537.1 196.25 544.78 187.6 555.51 C168.91 578.65 142.36 590.14 115.42 601.21 C114.68 601.52 113.93 601.83 113.16 602.16 C88.65 612.38 61.69 617.27 35.42 620.21 C34.56 620.31 33.7 620.41 32.81 620.52 C24.22 621.43 15.61 621.41 6.98 621.39 C6.18 621.39 5.38 621.39 4.56 621.39 C-7.61 621.37 -19.53 620.96 -31.58 619.21 C-32.53 619.08 -33.47 618.95 -34.45 618.82 C-64.62 614.67 -94.1 606.42 -121.58 593.21 C-122.29 592.87 -122.99 592.54 -123.72 592.19 C-139.4 584.71 -156.22 576.28 -164.58 560.21 C-164.58 559.55 -164.58 558.89 -164.58 558.21 C-165.02 558.26 -165.02 558.26 -167.27 558.52 C-187.23 558.44 -205.68 537.43 -218.72 524.3 C-222.88 520.03 -226.74 515.59 -230.44 510.91 C-232.75 507.99 -235.16 505.16 -237.58 502.33 C-269.4 464.05 -290.9 415.05 -299.58 366.21 C-299.78 365.14 -299.97 364.08 -300.17 362.99 C-306.11 329.6 -306.58 292.61 -300.58 259.21 C-300.43 258.38 -300.29 257.55 -300.14 256.7 C-299.14 251.15 -297.92 245.68 -296.58 240.21 C-296.36 239.31 -296.15 238.41 -295.93 237.49 C-287.36 202.08 -273.26 168.31 -252.58 138.21 C-252.34 137.85 -252.34 137.85 -251.12 136.07 C-243.98 125.72 -236.47 116.11 -227.58 107.21 C-226.81 106.43 -226.04 105.65 -225.25 104.84 C-218.24 98.15 -209.47 92.66 -199.58 92.21 C-199.52 91.85 -199.52 91.85 -199.24 90.03 C-194.86 71.21 -175.07 57.17 -159.61 47.46 C-148.23 40.41 -136.68 33.93 -124.58 28.21 C-124.24 28.04 -124.24 28.04 -122.5 27.21 C-95.38 14.38 -67.09 7.06 -37.58 2.21 C-36.51 2.01 -35.43 1.82 -34.33 1.62 C-22.92 -0.2 -11.53 -0.06 0 0 Z " fill="#F56201" transform="translate(505.579345703125,201.794189453125)"/>
<path d="M0 0 C3.48 0.02 6.96 0.02 10.44 0.02 C26.39 0.04 41.74 0.65 57.48 3.46 C58.75 3.68 60.01 3.91 61.32 4.14 C113.76 13.64 172.55 35.58 207.01 78.27 C214.91 87.87 223.27 96.01 233.36 103.34 C257.91 121.31 273.64 148.16 286.51 175.3 C287.43 177.23 288.4 179.14 289.37 181.05 C301.59 205.53 308.84 232.33 313.42 259.21 C313.49 259.62 313.49 259.62 313.85 261.71 C316.21 275.93 316.84 289.85 316.7 304.26 C316.67 307.66 316.66 311.07 316.66 314.48 C316.6 330.58 316.09 346.21 313.11 362.08 C312.99 362.69 312.99 362.69 312.42 365.79 C311.77 369.26 311.1 372.74 310.42 376.21 C310.26 377.03 310.1 377.85 309.94 378.7 C301.51 421.45 280.7 464.32 253.42 498.21 C252.76 499.07 252.09 499.94 251.41 500.83 C241.32 513.92 230.59 522.08 216.42 530.21 C204.44 537.1 196.25 544.78 187.6 555.51 C168.91 578.65 142.36 590.14 115.42 601.21 C114.68 601.52 113.93 601.83 113.16 602.16 C88.65 612.38 61.69 617.27 35.42 620.21 C34.56 620.31 33.7 620.41 32.81 620.52 C24.22 621.43 15.61 621.41 6.98 621.39 C6.18 621.39 5.38 621.39 4.56 621.39 C-7.61 621.37 -19.53 620.96 -31.58 619.21 C-32.53 619.08 -33.47 618.95 -34.45 618.82 C-64.62 614.67 -94.1 606.42 -121.58 593.21 C-122.29 592.87 -122.99 592.54 -123.72 592.19 C-139.4 584.71 -156.22 576.28 -164.58 560.21 C-164.58 559.55 -164.58 558.89 -164.58 558.21 C-165.02 558.26 -165.02 558.26 -167.27 558.52 C-187.23 558.44 -205.68 537.43 -218.72 524.3 C-222.88 520.03 -226.74 515.59 -230.44 510.91 C-232.75 507.99 -235.16 505.16 -237.58 502.33 C-269.4 464.05 -290.9 415.05 -299.58 366.21 C-299.78 365.14 -299.97 364.08 -300.17 362.99 C-306.11 329.6 -306.58 292.61 -300.58 259.21 C-300.43 258.38 -300.29 257.55 -300.14 256.7 C-299.14 251.15 -297.92 245.68 -296.58 240.21 C-296.36 239.31 -296.15 238.41 -295.93 237.49 C-287.36 202.08 -273.26 168.31 -252.58 138.21 C-252.34 137.85 -252.34 137.85 -251.12 136.07 C-243.98 125.72 -236.47 116.11 -227.58 107.21 C-226.81 106.43 -226.04 105.65 -225.25 104.84 C-218.24 98.15 -209.47 92.66 -199.58 92.21 C-199.52 91.85 -199.52 91.85 -199.24 90.03 C-194.86 71.21 -175.07 57.17 -159.61 47.46 C-148.23 40.41 -136.68 33.93 -124.58 28.21 C-124.24 28.04 -124.24 28.04 -122.5 27.21 C-95.38 14.38 -67.09 7.06 -37.58 2.21 C-36.51 2.01 -35.43 1.82 -34.33 1.62 C-22.92 -0.2 -11.53 -0.06 0 0 Z M-82.58 45.21 C-83.42 45.5 -84.25 45.79 -85.11 46.09 C-110.64 55.11 -135.44 67.1 -156.58 84.21 C-157.35 84.79 -158.11 85.37 -158.9 85.96 C-165.08 90.87 -168.11 96.8 -170.58 104.21 C-170.66 105.91 -170.69 107.61 -170.68 109.31 C-170.67 110.29 -170.67 111.28 -170.67 112.29 C-170.66 113.31 -170.65 114.34 -170.64 115.39 C-170.64 116.43 -170.63 117.46 -170.63 118.53 C-170.62 121.09 -170.6 123.65 -170.58 126.21 C-171.38 125.99 -172.18 125.77 -173 125.55 C-190.34 121.15 -190.34 121.15 -197.94 124.13 C-215.63 134.78 -228.07 157.2 -237.38 174.94 C-238.58 177.2 -239.82 179.44 -241.07 181.68 C-250.9 199.5 -258.52 218.49 -263.58 238.21 C-263.67 238.52 -263.67 238.52 -264.1 240.13 C-269.05 258.53 -272.22 278.15 -272.58 297.21 C-272.6 298.16 -272.62 299.12 -272.64 300.11 C-272.9 314.51 -272.57 328.68 -270.84 342.98 C-270.61 344.96 -270.41 346.94 -270.21 348.92 C-267.84 370.47 -261.52 391.12 -253.58 411.21 C-253.22 412.12 -252.86 413.04 -252.49 413.98 C-245.19 432.36 -236.07 450.08 -224.58 466.21 C-223.8 467.33 -223.03 468.45 -222.26 469.58 C-209.31 488.22 -190.1 514.95 -169.58 525.21 C-162.02 526.09 -156.37 524.37 -149.58 521.21 C-148.21 520.62 -146.83 520.03 -145.45 519.46 C-144.51 519.04 -143.56 518.63 -142.58 518.21 C-142.5 519.4 -142.41 520.6 -142.33 521.83 C-141.01 533.63 -137.92 545.93 -128.58 553.7 C-125.31 556.17 -121.84 558.08 -118.2 559.96 C-117.4 560.38 -116.59 560.8 -115.75 561.23 C-99.79 569.32 -82.92 575.76 -65.58 580.21 C-64.8 580.42 -64.02 580.63 -63.21 580.84 C-49.12 584.6 -35.06 586.66 -20.58 588.21 C-20.24 588.25 -20.24 588.25 -18.54 588.46 C-13.37 589.08 -8.3 589.36 -3.09 589.37 C-2.31 589.38 -1.54 589.38 -0.74 589.39 C1.75 589.4 4.24 589.4 6.73 589.39 C7.59 589.39 8.44 589.39 9.32 589.39 C57.35 589.28 121.88 577.03 157.73 542.33 C161.77 538.07 165.47 533.57 169.16 529 C179.13 516.7 189.78 508.65 203.61 501.21 C215.68 494.66 223.65 486.5 231.42 475.21 C231.95 474.45 232.47 473.69 233.02 472.91 C241.2 461.05 248.82 449.02 255.42 436.21 C255.81 435.46 256.19 434.72 256.59 433.95 C263.14 421.13 267.96 407.88 272.42 394.21 C272.68 393.43 272.94 392.65 273.2 391.86 C279.14 373.98 281.87 355.83 284.42 337.21 C284.53 336.46 284.64 335.7 284.75 334.93 C285.73 327.5 285.62 320 285.61 312.52 C285.61 311.79 285.61 311.06 285.61 310.3 C285.58 297.85 285.09 285.56 283.42 273.21 C283.36 272.76 283.36 272.76 283.06 270.52 C276.02 220.16 254.36 161.73 214.42 128.21 C212.6 126.85 210.77 125.52 208.92 124.21 C199.58 117.6 191.84 110.04 184.75 101.09 C172.68 86.12 159.21 75.72 142.48 66.36 C140.6 65.31 138.74 64.23 136.88 63.15 C110.46 48.3 80.22 39.08 50.42 34.21 C49.93 34.12 49.93 34.12 47.46 33.71 C4.66 26.82 -41.67 30.9 -82.58 45.21 Z " fill="#18191C" transform="translate(505.579345703125,201.794189453125)"/>
<path d="M0 0 C6.52 4.66 12.1 10.94 17.75 16.59 C18.7 17.53 19.65 18.48 20.6 19.42 C23.16 21.97 25.71 24.52 28.27 27.07 C29.87 28.66 31.47 30.26 33.06 31.85 C38.08 36.86 43.09 41.86 48.11 46.87 C53.87 52.63 59.64 58.38 65.42 64.13 C69.9 68.59 74.38 73.06 78.85 77.53 C81.52 80.19 84.18 82.85 86.86 85.51 C89.37 88.01 91.87 90.51 94.37 93.02 C95.72 94.37 97.08 95.71 98.44 97.05 C108.35 107.03 108.35 107.03 109.53 114.25 C109.41 127.04 104.9 133.04 96 142 C93.96 143.88 91.88 145.7 89.76 147.5 C86.73 150.08 83.99 152.87 81.36 155.86 C73.76 164.51 65.58 172.56 57.44 180.69 C55.84 182.29 54.25 183.89 52.65 185.48 C49.33 188.81 46 192.14 42.67 195.46 C38.4 199.73 34.13 204 29.86 208.27 C26.57 211.56 23.29 214.85 20 218.14 C18.42 219.71 16.85 221.29 15.27 222.87 C13.08 225.06 10.89 227.25 8.69 229.44 C8.37 229.76 8.37 229.76 6.72 231.42 C6.12 232.01 5.53 232.6 4.91 233.21 C4.65 233.47 4.65 233.47 3.35 234.78 C1.2 236.73 -0.21 237.03 -3.12 237.5 C-8.76 236.77 -11.09 233.94 -15 230 C-15.99 229.04 -16.98 228.07 -17.96 227.11 C-21.02 224.12 -24.01 221.06 -27 218 C-27.69 217.31 -28.39 216.63 -29.1 215.92 C-31.68 213.21 -32.95 211.22 -33.81 207.56 C-32.04 199.8 -23.97 193.85 -18.41 188.41 C-16.92 186.94 -15.42 185.46 -13.92 183.99 C-13.14 183.22 -12.36 182.45 -11.56 181.66 C-7.39 177.56 -3.23 173.45 0.92 169.33 C6.19 164.11 11.47 158.9 16.77 153.7 C21.06 149.49 25.34 145.26 29.61 141.01 C31.24 139.4 32.87 137.8 34.51 136.2 C36.8 133.97 39.06 131.72 41.32 129.46 C42 128.81 42.68 128.15 43.38 127.48 C46.32 124.5 47.83 122.66 48.87 118.53 C47.59 113.31 44.58 110.67 40.78 107 C40.01 106.23 39.25 105.47 38.45 104.68 C35.92 102.15 33.35 99.64 30.79 97.14 C29.02 95.39 27.25 93.63 25.49 91.88 C21.32 87.73 17.13 83.6 12.93 79.48 C6.77 73.43 0.63 67.35 -5.5 61.27 C-9.9 56.91 -14.31 52.55 -18.73 48.21 C-19.54 47.41 -20.35 46.61 -21.19 45.78 C-22.7 44.29 -24.22 42.8 -25.74 41.31 C-26.41 40.65 -27.07 39.99 -27.76 39.31 C-28.34 38.74 -28.92 38.17 -29.52 37.58 C-32.01 34.92 -32.97 33.29 -33.38 29.62 C-32.94 25.45 -31.98 23.89 -29 21 C-28.34 21 -27.68 21 -27 21 C-27 20.34 -27 19.68 -27 19 C-25.5 17.55 -25.5 17.55 -23.44 15.88 C-20.46 13.36 -17.84 10.79 -15.31 7.81 C-7.4 -1.38 -7.4 -1.38 0 0 Z " fill="#18191B" transform="translate(397,390)"/>
<path d="M0 0 C0.6 -0 0.6 -0 3.62 -0.03 C4.28 -0.02 4.28 -0.02 7.6 -0.01 C8.99 -0.01 10.39 -0.02 11.78 -0.02 C15.57 -0.04 19.36 -0.03 23.15 -0.02 C27.11 -0.01 31.07 -0.02 35.04 -0.03 C41.69 -0.03 48.34 -0.02 55 -0.01 C62.7 0.01 70.39 0 78.09 -0.02 C84.7 -0.03 91.3 -0.03 97.91 -0.02 C101.85 -0.02 105.8 -0.02 109.75 -0.03 C113.46 -0.04 117.17 -0.03 120.88 -0.01 C122.89 -0.01 124.9 -0.02 126.92 -0.03 C128.11 -0.02 129.31 -0.01 130.54 0 C131.58 0 132.62 0 133.69 0 C136.27 0.38 136.27 0.38 138.1 1.69 C140.05 4.52 139.72 7.69 139.7 11.01 C139.71 11.75 139.71 12.49 139.72 13.26 C139.72 14.83 139.72 16.4 139.71 17.97 C139.71 20.37 139.73 22.77 139.77 25.18 C139.77 26.7 139.77 28.23 139.76 29.76 C139.78 30.47 139.79 31.19 139.8 31.93 C139.73 36.92 139.73 36.92 137.6 39.07 C134.7 40.7 132.82 40.76 129.5 40.77 C128.32 40.78 127.14 40.79 125.93 40.8 C124.64 40.79 123.35 40.79 122.03 40.79 C120.65 40.79 119.28 40.8 117.91 40.81 C114.18 40.82 110.45 40.82 106.72 40.82 C103.61 40.81 100.5 40.82 97.39 40.83 C90.05 40.84 82.71 40.84 75.37 40.83 C67.8 40.82 60.23 40.83 52.65 40.86 C46.15 40.88 39.65 40.89 33.15 40.88 C29.26 40.88 25.38 40.88 21.5 40.9 C17.85 40.91 14.2 40.91 10.54 40.89 C8.56 40.88 6.59 40.9 4.61 40.91 C4.02 40.91 4.02 40.91 1.04 40.88 C0.01 40.88 -1.01 40.88 -2.06 40.88 C-5.47 40.24 -6.65 39.1 -8.73 36.38 C-9.12 33.74 -9.27 31.52 -9.23 28.88 C-9.23 28.16 -9.23 27.44 -9.23 26.7 C-9.23 25.18 -9.22 23.66 -9.2 22.14 C-9.17 19.82 -9.18 17.5 -9.19 15.18 C-9.18 13.7 -9.18 12.23 -9.17 10.75 C-9.17 10.06 -9.17 9.36 -9.17 8.65 C-9.08 3.88 -9.08 3.88 -7.56 1.7 C-4.99 -0.15 -3.16 0 0 0 Z " fill="#16181B" transform="translate(520.7314453125,594.6190490722656)"/>
<path d="M0 0 C23.19 23.19 24.28 84.29 24.38 115.18 C24.35 130.01 22.47 144.38 20 159 C19.73 160.7 19.47 162.39 19.21 164.09 C17.92 172.18 16.15 180.05 13.67 187.87 C13.18 189.43 12.7 190.99 12.22 192.56 C-0.18 232.8 -22.3 283.93 -61 305 C-61.47 305.24 -61.47 305.24 -63.83 306.46 C-77.43 313.51 -86.99 323.77 -96.5 335.56 C-97.99 337.38 -99.49 339.19 -101 341 C-101.63 341.76 -102.25 342.52 -102.9 343.31 C-130.62 374.04 -191.95 388.27 -231.59 390.84 C-254.19 391.91 -276.62 391.44 -299 388 C-300.51 387.79 -302.01 387.59 -303.52 387.38 C-330.74 383.38 -374.84 372.31 -394.62 351.69 C-400.68 343.51 -404.37 330.08 -404 320 C-402 321 -402 321 -400.96 323.64 C-400 327.01 -399.28 330.36 -398.62 333.81 C-397.12 340.95 -395.7 347.36 -390.38 352.56 C-388 354 -388 354 -386 354 C-386 354.66 -386 355.32 -386 356 C-385.21 356.23 -384.43 356.47 -383.62 356.71 C-378.96 358.37 -374.58 360.48 -370.12 362.62 C-369.25 363.05 -368.37 363.47 -367.46 363.9 C-365.31 364.93 -363.15 365.96 -361 367 C-361 367.66 -361 368.32 -361 369 C-360.07 369.1 -359.14 369.21 -358.19 369.31 C-350.32 370.46 -343.11 372.83 -335.95 376.21 C-333.55 377.18 -331.56 377.33 -329 377 C-329 377.66 -329 378.32 -329 379 C-328.25 379.11 -327.5 379.23 -326.73 379.35 C-323.68 379.88 -320.67 380.48 -317.65 381.12 C-305.17 383.75 -292.88 385.83 -280.16 386.81 C-278.06 387 -275.98 387.26 -273.89 387.54 C-267.86 388.23 -261.8 388.15 -255.74 388.13 C-253.7 388.13 -251.67 388.13 -249.63 388.14 C-228.68 388.12 -228.68 388.12 -223.35 385.9 C-221 385 -221 385 -218 386 C-215.35 385.69 -215.35 385.69 -212.2 385.07 C-211.05 384.85 -209.91 384.63 -208.74 384.41 C-207.55 384.17 -206.35 383.93 -205.12 383.69 C-203.94 383.46 -202.76 383.24 -201.54 383 C-196.45 382.01 -191.8 380.96 -187 379 C-185.6 378.65 -184.2 378.34 -182.78 378.06 C-177.91 377.03 -173.23 375.59 -168.5 374.06 C-168.1 373.94 -168.1 373.94 -166.11 373.3 C-161.33 371.77 -156.57 370.19 -151.83 368.55 C-150 368 -150 368 -148 368 C-147.67 367.01 -147.34 366.02 -147 365 C-145.28 364.24 -145.28 364.24 -143.06 363.64 C-137.66 362 -132.97 359.51 -128.06 356.75 C-127.18 356.25 -126.3 355.76 -125.39 355.25 C-122.92 353.85 -120.46 352.43 -118 351 C-117.49 350.71 -117.49 350.71 -114.9 349.21 C-107.74 344.66 -102.74 338.2 -97.42 331.71 C-88.21 320.61 -78.07 309.53 -65 303 C-64.34 303 -63.68 303 -63 303 C-62.67 302.34 -62.34 301.68 -62 301 C-60.29 300.28 -58.57 299.55 -56.84 298.86 C-54.24 297.65 -52.23 295.79 -50 294 C-49.01 294 -48.02 294 -47 294 C-46.73 293.36 -46.46 292.72 -46.19 292.06 C-45 290 -45 290 -42 289 C-41.31 286.94 -41.31 286.94 -41 285 C-40.34 285 -39.68 285 -39 285 C-38.73 284.4 -38.45 283.81 -38.17 283.19 C-37.04 281.07 -35.9 279.67 -34.25 277.94 C-30.29 273.47 -27.7 268.29 -25 263 C-24.34 263 -23.68 263 -23 263 C-22.67 261.68 -22.34 260.36 -22 259 C-21.34 259 -20.68 259 -20 259 C-19.94 258.32 -19.88 257.64 -19.81 256.94 C-18.87 253.53 -17.32 251.5 -15.21 248.71 C-13.72 246.6 -12.81 244.44 -12 242 C-11.34 242 -10.68 242 -10 242 C-9.91 241.31 -9.81 240.62 -9.72 239.91 C-9.02 237.06 -7.93 234.81 -6.52 232.24 C-0.39 221.07 3.24 209.01 7.07 196.91 C7.71 194.91 8.36 192.92 9.03 190.93 C13.08 178.7 16.35 166.36 17.64 153.53 C17.97 150.27 18.47 147.1 19.06 143.88 C23.14 119.79 22.46 93.15 17.45 69.26 C16.9 66.47 16.59 63.71 16.38 60.88 C16.34 60.41 16.34 60.41 16.15 58.05 C16.1 57.38 16.05 56.7 16 56 C15.67 56 15.34 56 15 56 C14.78 54.79 14.56 53.58 14.34 52.33 C11.39 36.54 7.65 20.94 0.88 6.31 C0 4 0 4 0 0 Z " fill="#BB5A25" transform="translate(767,400)"/>
<path d="M0 0 C0.99 0.66 1.98 1.32 3 2 C3 2.66 3 3.32 3 4 C3.99 4.33 4.98 4.66 6 5 C7.34 6.66 8.68 8.33 10 10 C10.91 10.72 11.81 11.44 12.75 12.19 C13.49 12.79 14.24 13.38 15 14 C15 14.66 15 15.32 15 16 C15.56 16.23 16.11 16.45 16.69 16.69 C19.66 18.37 21.65 20.53 24 23 C24.93 23.89 25.86 24.77 26.81 25.69 C29 28 29 28 29 30 C29.66 30 30.32 30 31 30 C31 30.66 31 31.32 31 32 C31.66 32 32.32 32 33 32 C34.62 33.68 34.62 33.68 36.44 35.88 C38.58 38.46 40.17 40.11 43 42 C43 42.66 43 43.32 43 44 C43.66 44 44.32 44 45 44 C46.71 45.62 48.37 47.29 50 49 C50.6 49.56 51.2 50.11 51.81 50.69 C53 52 53 52 53 54 C53.66 54 54.32 54 55 54 C55 54.66 55 55.32 55 56 C55.57 56.24 56.13 56.48 56.71 56.72 C59.49 58.27 61.35 60.16 63.56 62.44 C64.33 63.22 65.09 64 65.88 64.81 C66.58 65.53 67.28 66.25 68 67 C68.59 67.55 69.17 68.1 69.78 68.66 C71 70 71 70 71 72 C71.6 72.26 72.2 72.52 72.81 72.79 C75.16 74.09 76.34 75.34 78 77.44 C80.15 80.06 82.26 82 85 84 C85 84.66 85 85.32 85 86 C85.66 86 86.32 86 87 86 C91.26 89.88 94.99 94.3 98.82 98.6 C100.24 100.16 101.71 101.69 103.23 103.17 C105.13 105.14 105.62 106.32 106 109 C106.66 109 107.32 109 108 109 C111.29 115.79 110.37 123.03 108 130 C105.4 135.08 101.41 138.63 97.06 142.23 C92.63 146.04 88.65 150.36 84.55 154.52 C83 156.08 81.45 157.64 79.91 159.2 C78.84 160.28 77.77 161.36 76.7 162.45 C75.16 164.02 73.6 165.58 72.05 167.14 C71.13 168.08 70.21 169.01 69.26 169.97 C67 172 67 172 65 172 C64.89 172.27 64.89 172.27 64.36 173.63 C62.5 176.88 59.95 179.31 57.3 181.91 C56.71 182.5 56.13 183.08 55.53 183.67 C53.61 185.59 51.68 187.5 49.75 189.41 C48.41 190.74 47.07 192.07 45.74 193.41 C42.22 196.91 38.69 200.41 35.17 203.91 C29.52 209.52 23.88 215.13 18.24 220.74 C16.27 222.7 14.3 224.66 12.32 226.61 C11.12 227.81 9.91 229.01 8.7 230.22 C8.15 230.76 7.6 231.3 7.03 231.86 C4.74 234.15 2.81 236.29 1 239 C-3.53 240.51 -7.38 240.77 -11.75 238.69 C-13.71 237.22 -15.44 235.89 -17 234 C-17 233.34 -17 232.68 -17 232 C-17.66 232 -18.32 232 -19 232 C-19.56 231.3 -20.11 230.6 -20.69 229.88 C-23.09 226.89 -25.63 224.7 -28.61 222.33 C-29.07 221.89 -29.53 221.45 -30 221 C-30 220.34 -30 219.68 -30 219 C-30.66 219 -31.32 219 -32 219 C-35.26 215.34 -36.74 212.68 -37.5 207.81 C-36.32 198.83 -25.49 191.41 -19.31 185.31 C-17.45 183.48 -15.59 181.64 -13.74 179.8 C-12.92 179 -12.11 178.2 -11.27 177.37 C-9 175 -9 175 -6.89 172.26 C-5 170 -5 170 -2 169 C-1.32 167.68 -0.65 166.34 0 165 C1.63 163.43 1.63 163.43 3.56 161.88 C7.87 158.26 11.47 154.21 15.12 149.94 C15.74 149.3 16.36 148.66 17 148 C17.66 148 18.32 148 19 148 C19 147.34 19 146.68 19 146 C20.47 144.55 20.47 144.55 22.5 142.88 C26.9 139.13 30.95 135.12 35 131 C35.91 130.11 36.81 129.23 37.75 128.31 C43.65 122.25 43.65 122.25 44.69 118.56 C43.57 114.41 40.29 112.58 37 110 C33.06 106.26 29.51 102.21 25.91 98.14 C22.8 94.66 19.62 91.51 16 88.56 C12.92 85.93 10.55 83.14 8 80 C5.64 77.52 3.34 75.26 0.62 73.19 C-2.32 70.73 -4.69 68.03 -7.16 65.1 C-9.33 62.62 -11.66 60.33 -14 58 C-15.6 56.39 -17.2 54.78 -18.79 53.17 C-20.59 51.36 -22.39 49.56 -24.19 47.75 C-25.1 46.83 -26.02 45.9 -26.96 44.95 C-27.4 44.51 -27.4 44.51 -29.61 42.3 C-30.4 41.5 -31.2 40.7 -32.02 39.87 C-34 38 -34 38 -36 37 C-37.34 32 -37.55 28.11 -35.25 23.44 C-33 21 -33 21 -30 20 C-30 19.34 -30 18.68 -30 18 C-28.62 16.38 -28.62 16.38 -27 15 C-26.34 15 -25.68 15 -25 15 C-24.9 14.36 -24.79 13.72 -24.69 13.06 C-24.57 12.72 -24.57 12.72 -24 11 C-23.01 10.67 -22.02 10.34 -21 10 C-21 9.34 -21 8.68 -21 8 C-15.2 1.75 -8.59 -4.1 0 0 Z M-22 14 C-23.84 15.62 -25.72 17.18 -27.64 18.7 C-28.09 19.13 -28.54 19.56 -29 20 C-29 20.66 -29 21.32 -29 22 C-29.62 22.27 -30.24 22.54 -30.88 22.81 C-33 24 -33 24 -35 27 C-35.69 30.06 -35.69 30.06 -35 34 C-28.51 42.91 -19.55 50.48 -11.71 58.18 C-7.67 62.15 -3.64 66.14 0.38 70.13 C5.49 75.18 10.6 80.23 15.73 85.26 C19.9 89.35 24.05 93.45 28.19 97.57 C29.77 99.13 31.35 100.68 32.94 102.23 C35.15 104.39 37.35 106.57 39.53 108.75 C40.19 109.39 40.85 110.02 41.53 110.67 C44.42 113.6 45.85 115.39 46.86 119.45 C45.58 124.72 42.51 127.4 38.67 131.11 C37.89 131.88 37.11 132.66 36.31 133.46 C33.74 136.03 31.14 138.57 28.54 141.11 C26.74 142.89 24.95 144.67 23.16 146.45 C18.93 150.65 14.68 154.84 10.43 159.02 C4.18 165.16 -2.05 171.33 -8.27 177.5 C-12.74 181.93 -17.21 186.35 -21.69 190.76 C-22.51 191.57 -23.33 192.37 -24.18 193.21 C-25.72 194.73 -27.26 196.24 -28.8 197.75 C-29.47 198.42 -30.15 199.08 -30.84 199.77 C-31.43 200.35 -32.02 200.93 -32.63 201.52 C-34.95 204.02 -35.67 206.49 -35.57 209.91 C-34.37 214.3 -30.74 217.29 -27.58 220.43 C-25.75 222.25 -23.94 224.09 -22.13 225.94 C-19.48 228.63 -16.83 231.31 -14.16 233.97 C-13.6 234.53 -13.04 235.09 -12.46 235.67 C-10.25 237.69 -8.89 238.02 -5.88 238.5 C-1.77 237.97 -1.12 237.58 1.77 234.93 C2.47 234.29 3.17 233.66 3.89 233 C7.15 229.91 10.36 226.77 13.53 223.58 C14.24 222.88 14.94 222.17 15.67 221.45 C17.97 219.14 20.27 216.83 22.57 214.52 C24.19 212.91 25.8 211.29 27.41 209.68 C31.64 205.45 35.87 201.21 40.1 196.97 C44.4 192.66 48.7 188.35 53 184.05 C59.95 177.09 66.89 170.14 73.83 163.18 C74.44 162.57 75.05 161.96 75.68 161.33 C76.25 160.76 76.82 160.19 77.4 159.6 C78.87 158.13 80.35 156.66 81.83 155.2 C84 153 84 153 85.81 150.62 C87.7 148.36 89.51 146.65 91.75 144.75 C99.05 138.47 106.13 131.94 107.38 121.99 C107.89 112.53 105.07 107.58 98.84 100.57 C96.29 97.92 93.7 95.31 91.08 92.72 C90.09 91.73 89.09 90.73 88.1 89.74 C85.43 87.06 82.75 84.39 80.06 81.73 C77.25 78.93 74.44 76.12 71.64 73.31 C66.93 68.61 62.22 63.92 57.51 59.22 C51.45 53.2 45.4 47.16 39.36 41.12 C34.16 35.93 28.95 30.73 23.75 25.54 C22.08 23.87 20.4 22.2 18.73 20.54 C16.11 17.92 13.49 15.31 10.86 12.7 C9.44 11.28 8.01 9.86 6.59 8.43 C5.75 7.6 4.9 6.76 4.03 5.89 C3.3 5.16 2.56 4.43 1.81 3.68 C-0.61 1.43 -1.82 1.03 -5.12 0.5 C-12.89 1.5 -17.25 8.27 -22 14 Z " fill="#D7702E" transform="translate(399,389)"/>
<path d="M0 0 C-0.66 0.66 -1.32 1.32 -2 2 C-4.01 1.74 -6.01 1.38 -8 1 C-9.98 0.77 -11.96 0.56 -13.94 0.38 C-14.92 0.28 -15.89 0.18 -16.9 0.09 C-21.99 -0.06 -25.63 -0.05 -29.77 3.12 C-30.63 4.03 -31.49 4.94 -32.38 5.88 C-32.61 6.12 -32.61 6.12 -33.78 7.35 C-37.79 11.61 -41.5 16.1 -45.12 20.69 C-47 23 -47 23 -48.56 24.5 C-50.45 26.47 -51.65 28.64 -53 31 C-53.44 31.72 -53.87 32.44 -54.32 33.18 C-71.3 61.25 -71.3 61.25 -76 73 C-76.67 74.67 -77.33 76.33 -78 78 C-78.34 78.86 -78.68 79.72 -79.03 80.61 C-79.81 82.53 -80.64 84.42 -81.5 86.31 C-84.58 93.89 -86.84 101.74 -88.47 109.76 C-88.99 111.95 -89.66 113.99 -90.43 116.11 C-92.14 121.18 -93.17 126.3 -94.12 131.56 C-94.29 132.46 -94.46 133.35 -94.64 134.27 C-96.11 142.23 -97.09 150.11 -97.5 158.19 C-97.77 163.26 -98.1 168.31 -98.56 173.38 C-100.04 192.53 -98.17 211.11 -95 230 C-94.85 230.95 -94.69 231.91 -94.54 232.89 C-93.63 238.26 -92.36 243.35 -90.72 248.54 C-89.76 251.81 -89.16 255.12 -88.54 258.48 C-87.79 261.99 -86.71 265.37 -85.59 268.77 C-85 271 -85 271 -85 275 C-84.34 275.33 -83.68 275.66 -83 276 C-81.96 278.47 -81.02 280.92 -80.12 283.44 C-79.59 284.91 -79.05 286.37 -78.52 287.84 C-78.26 288.56 -78 289.27 -77.73 290.01 C-75.67 295.64 -73.5 301.13 -70.69 306.44 C-69 310 -69 310 -70 313 C-75.75 302.06 -80.68 290.95 -85.09 279.4 C-85.66 277.89 -86.24 276.38 -86.84 274.87 C-110.58 214.37 -107.41 139.32 -82.15 79.89 C-81.44 78.26 -80.72 76.63 -80 75 C-79.63 74.16 -79.25 73.31 -78.86 72.44 C-68.13 48.56 -55.18 26.07 -37.56 6.56 C-37.33 6.31 -37.33 6.31 -36.17 5.01 C-25.59 -6.24 -13.73 -3.72 0 0 Z " fill="#BA5724" transform="translate(335,328)"/>
<path d="M0 0 C0.66 0.99 1.32 1.98 2 3 C0.35 2.34 -1.3 1.68 -3 1 C-3 0.34 -3 -0.32 -3 -1 C-3.74 -1.29 -4.49 -1.58 -5.25 -1.88 C-7.57 -2.82 -9.78 -3.85 -12 -5 C-12 -5.66 -12 -6.32 -12 -7 C-12.34 -7.13 -12.34 -7.13 -14.08 -7.76 C-17.45 -9.19 -20.54 -10.96 -23.69 -12.81 C-39.39 -21.9 -39.39 -21.9 -46 -23 C-46 -23.66 -46 -24.32 -46 -25 C-46.28 -25.09 -46.28 -25.09 -47.72 -25.55 C-51.46 -26.77 -55.11 -28 -58.69 -29.62 C-61.86 -30.94 -64.63 -31.46 -68 -32 C-68.99 -32.66 -69.98 -33.32 -71 -34 C-78.44 -36.68 -86.09 -38.58 -93.81 -40.28 C-96.94 -40.99 -100.03 -41.8 -103.12 -42.62 C-107.88 -43.83 -112.45 -44.41 -117.34 -44.75 C-120.02 -45 -122.56 -45.48 -125.19 -46.06 C-128.23 -46.72 -130.95 -47.09 -134.06 -47 C-138.62 -47 -142.61 -47.86 -147 -49 C-147.33 -48.34 -147.66 -47.68 -148 -47 C-148.33 -47.16 -148.33 -47.16 -150 -48 C-151.88 -48.1 -153.76 -48.13 -155.64 -48.13 C-156.77 -48.13 -157.91 -48.14 -159.08 -48.14 C-159.67 -48.13 -159.67 -48.13 -162.69 -48.12 C-163.86 -48.13 -165.03 -48.13 -166.24 -48.14 C-171.94 -48.13 -177.38 -47.97 -183 -47 C-184.81 -46.84 -186.62 -46.69 -188.44 -46.56 C-205.57 -45.15 -221.27 -41.74 -237.75 -36.93 C-240.74 -36.07 -243.74 -35.28 -246.75 -34.5 C-254.82 -32.3 -262.13 -28.98 -269.55 -25.16 C-271.92 -24.04 -274.24 -23.21 -276.75 -22.44 C-280.7 -21.2 -283.59 -19.37 -287 -17 C-289.52 -15.7 -292.07 -14.46 -294.63 -13.25 C-297 -12 -297 -12 -298.93 -10.54 C-301.47 -8.65 -304.18 -7.41 -307 -6 C-329.92 8.98 -329.92 8.98 -332.76 18.55 C-332.88 19.46 -333 20.37 -333.12 21.31 C-333.27 22.35 -333.41 23.38 -333.56 24.44 C-333.71 25.62 -333.85 26.79 -334 28 C-334.19 29.45 -334.37 30.89 -334.56 32.34 C-335.06 36.22 -335.54 40.11 -336 44 C-336.33 44 -336.66 44 -337 44 C-337.12 40.54 -337.19 37.08 -337.25 33.62 C-337.28 32.66 -337.32 31.69 -337.35 30.7 C-337.47 21.61 -335.27 13.53 -328.94 6.77 C-261.56 -54.77 -151.82 -64.78 0 0 Z " fill="#BA5925" transform="translate(672,284)"/>
<path d="M0 0 C1.22 -0.01 2.43 -0.01 3.69 -0.02 C5.03 -0 6.38 0.01 7.73 0.03 C9.14 0.03 10.56 0.03 11.98 0.03 C15.83 0.02 19.68 0.05 23.54 0.08 C27.56 0.1 31.59 0.1 35.61 0.11 C43.23 0.12 50.85 0.15 58.48 0.19 C67.15 0.24 75.83 0.26 84.51 0.28 C102.36 0.32 120.2 0.39 138.05 0.48 C138.05 1.14 138.05 1.8 138.05 2.48 C138.71 2.48 139.37 2.48 140.05 2.48 C142.45 6.08 142.34 8.7 142.32 12.85 C142.32 13.57 142.32 14.29 142.32 15.03 C142.32 16.55 142.32 18.07 142.31 19.59 C142.3 21.91 142.31 24.23 142.33 26.55 C142.32 28.02 142.32 29.5 142.32 30.98 C142.32 31.67 142.33 32.36 142.33 33.07 C142.3 36.69 142.17 39.48 140.05 42.48 C136.62 44.77 135.37 44.73 131.33 44.74 C130.13 44.75 128.94 44.76 127.71 44.76 C126.4 44.76 125.09 44.76 123.74 44.76 C122.35 44.76 120.95 44.77 119.56 44.77 C115.78 44.78 111.99 44.79 108.21 44.78 C105.05 44.78 101.89 44.79 98.73 44.79 C91.28 44.8 83.83 44.8 76.38 44.8 C68.69 44.79 61 44.8 53.31 44.82 C46.71 44.84 40.11 44.85 33.51 44.84 C29.57 44.84 25.62 44.85 21.68 44.86 C17.97 44.87 14.27 44.87 10.56 44.86 C8.55 44.85 6.54 44.86 4.53 44.88 C3.33 44.87 2.14 44.86 0.9 44.86 C-0.14 44.86 -1.18 44.86 -2.25 44.86 C-5.36 44.42 -6.72 43.67 -8.95 41.48 C-11.85 32.79 -11.09 22.36 -10.76 13.29 C-10.75 12.89 -10.75 12.89 -10.71 10.83 C-10.67 10.06 -10.63 9.29 -10.59 8.5 C-10.57 7.82 -10.54 7.14 -10.51 6.44 C-8.96 1.03 -5.14 -0.02 0 0 Z M-6.78 3.8 C-8.7 6.56 -8.4 9.61 -8.38 12.85 C-8.39 13.57 -8.39 14.29 -8.4 15.03 C-8.4 16.55 -8.4 18.07 -8.39 19.59 C-8.39 21.91 -8.41 24.23 -8.45 26.55 C-8.45 28.02 -8.45 29.5 -8.44 30.98 C-8.46 31.67 -8.47 32.36 -8.48 33.07 C-8.43 36.25 -8.23 38.11 -6.28 40.66 C-3.36 42.94 -1.85 42.98 1.82 42.98 C2.41 42.99 2.41 42.99 5.39 43.01 C6.68 43 7.97 42.99 9.29 42.98 C10.67 42.99 12.04 42.99 13.41 43 C17.14 43.01 20.87 43 24.6 42.99 C28.5 42.97 32.4 42.98 36.3 42.98 C42.85 42.98 49.4 42.97 55.95 42.95 C63.52 42.92 71.09 42.92 78.67 42.93 C85.95 42.94 93.24 42.94 100.52 42.92 C103.62 42.92 106.72 42.92 109.82 42.92 C113.48 42.93 117.13 42.92 120.78 42.89 C122.76 42.89 124.74 42.89 126.71 42.9 C127.89 42.89 129.07 42.88 130.28 42.87 C131.31 42.87 132.33 42.86 133.38 42.86 C136.48 42.42 137.86 41.7 140.05 39.48 C140.45 36.8 140.59 34.53 140.55 31.86 C140.55 31.11 140.55 30.37 140.55 29.6 C140.55 28.03 140.54 26.46 140.52 24.89 C140.49 22.49 140.5 20.09 140.51 17.68 C140.5 16.16 140.5 14.63 140.49 13.11 C140.49 12.39 140.49 11.67 140.49 10.93 C140.4 5.99 140.4 5.99 138.89 3.79 C136.31 1.95 134.47 2.1 131.32 2.1 C130.13 2.09 128.93 2.08 127.7 2.07 C126.39 2.08 125.08 2.09 123.72 2.09 C122.33 2.09 120.93 2.08 119.54 2.08 C115.75 2.06 111.96 2.07 108.17 2.08 C104.21 2.09 100.25 2.08 96.29 2.07 C89.63 2.07 82.98 2.08 76.32 2.09 C68.62 2.11 60.93 2.1 53.23 2.08 C46.62 2.07 40.02 2.07 33.42 2.08 C29.47 2.08 25.52 2.08 21.58 2.07 C17.87 2.06 14.16 2.07 10.45 2.09 C8.43 2.09 6.42 2.08 4.4 2.07 C3.81 2.08 3.81 2.08 0.78 2.1 C-0.26 2.1 -1.3 2.1 -2.37 2.1 C-4.95 2.48 -4.95 2.48 -6.78 3.8 Z " fill="#CD6B2C" transform="translate(519.9478149414063,592.5189819335938)"/>
<path d="M0 0 C0.33 0 0.66 0 1 0 C1.64 11.61 0.32 17.35 -7.25 26.06 C-10.72 29.79 -14.36 33.21 -18.24 36.5 C-21.27 39.08 -24.01 41.87 -26.64 44.86 C-34.24 53.51 -42.42 61.56 -50.56 69.69 C-52.16 71.29 -53.75 72.89 -55.35 74.48 C-58.67 77.81 -62 81.14 -65.33 84.46 C-69.6 88.73 -73.87 93 -78.14 97.27 C-81.43 100.56 -84.71 103.85 -88 107.14 C-89.58 108.71 -91.15 110.29 -92.73 111.87 C-94.92 114.06 -97.11 116.25 -99.31 118.44 C-99.96 119.09 -100.61 119.74 -101.28 120.42 C-101.88 121.01 -102.47 121.6 -103.09 122.21 C-103.6 122.73 -104.12 123.25 -104.65 123.78 C-106.99 125.9 -108.19 126.01 -111.44 126.25 C-115 126 -115 126 -116.72 124.48 C-117.14 123.99 -117.57 123.5 -118 123 C-117.42 123.06 -116.84 123.12 -116.24 123.18 C-111.89 123.43 -108.95 123.49 -105.5 120.62 C-103 118 -103 118 -102 116 C-101.34 116 -100.68 116 -100 116 C-99.77 115.42 -99.55 114.85 -99.31 114.25 C-97.67 111.43 -95.57 110 -93 108 C-92.44 107.26 -91.89 106.51 -91.31 105.75 C-90.88 105.17 -90.45 104.6 -90 104 C-89.34 104 -88.68 104 -88 104 C-88 103.34 -88 102.68 -88 102 C-87.34 102 -86.68 102 -86 102 C-86 101.34 -86 100.68 -86 100 C-85.34 100 -84.68 100 -84 100 C-84 99.34 -84 98.68 -84 98 C-83.34 98 -82.68 98 -82 98 C-81.88 97.71 -81.88 97.71 -81.25 96.22 C-79.82 93.67 -78.25 92.29 -76 90.44 C-73.44 88.33 -71.87 86.8 -70 84 C-69.34 84 -68.68 84 -68 84 C-67.73 83.4 -67.46 82.8 -67.19 82.19 C-66 80 -64.9 78.59 -63 77 C-62.34 77 -61.68 77 -61 77 C-60.77 76.44 -60.55 75.89 -60.31 75.31 C-57.89 71.04 -54.57 67.86 -50 66 C-50 65.34 -50 64.68 -50 64 C-49.34 64 -48.68 64 -48 64 C-47.67 63.01 -47.34 62.02 -47 61 C-46.34 61 -45.68 61 -45 61 C-44.77 60.42 -44.55 59.85 -44.31 59.25 C-42.65 56.4 -40.58 55.06 -38 53 C-36.23 51.07 -34.53 49.1 -32.84 47.1 C-30.66 44.62 -28.35 42.32 -26 40 C-25.05 39.05 -24.11 38.09 -23.17 37.13 C-14.22 28.09 -14.22 28.09 -9.44 24.06 C-4.46 19.8 -1.52 14.64 -0.59 8.11 C-0.52 7.14 -0.45 6.18 -0.38 5.19 C-0.3 4.21 -0.23 3.24 -0.15 2.23 C-0.12 1.86 -0.12 1.86 0 0 Z " fill="#441706" transform="translate(505,501)"/>
<path d="M0 0 C1.2 -0 2.4 -0.01 3.63 -0.01 C4.95 -0 6.27 0.01 7.62 0.02 C9.02 0.02 10.42 0.02 11.82 0.02 C15.62 0.02 19.43 0.04 23.23 0.06 C27.2 0.08 31.17 0.08 35.14 0.08 C42.66 0.09 50.19 0.11 57.71 0.14 C66.27 0.18 74.84 0.19 83.4 0.21 C101.02 0.24 118.63 0.29 136.25 0.36 C135.92 1.02 135.59 1.68 135.25 2.36 C134.87 2.36 134.87 2.36 132.97 2.34 C129.54 2.32 126.11 2.31 122.69 2.3 C121.5 2.29 120.32 2.28 119.11 2.27 C109.26 2.25 109.26 2.25 105.16 2.93 C102.25 3.36 101.01 3.07 98.25 2.36 C96.88 2.27 95.5 2.23 94.13 2.22 C93.32 2.21 92.51 2.21 91.67 2.2 C90.79 2.2 89.91 2.2 89 2.2 C88.07 2.19 87.13 2.19 86.17 2.18 C83.07 2.17 79.98 2.16 76.89 2.16 C74.73 2.15 72.58 2.15 70.43 2.14 C65.91 2.13 61.4 2.12 56.89 2.12 C51.11 2.12 45.33 2.09 39.56 2.06 C35.11 2.04 30.66 2.04 26.22 2.04 C24.09 2.03 21.96 2.03 19.83 2.01 C16.85 2 13.87 2 10.88 2 C10.45 2 10.45 2 8.23 1.98 C2.84 2.01 -1.02 2.7 -5.75 5.36 C-6.8 8.52 -6.78 10.4 -6.6 13.69 C-6.54 14.74 -6.49 15.78 -6.44 16.86 C-6.31 19.06 -6.19 21.25 -6.07 23.45 C-6.02 24.5 -5.96 25.55 -5.91 26.63 C-5.85 27.59 -5.8 28.54 -5.75 29.52 C-5.75 32.57 -6.18 35.37 -6.75 38.36 C-9.2 35.91 -9.01 34.53 -9.06 31.18 C-9.05 30.48 -9.05 29.78 -9.05 29.05 C-9.06 28.33 -9.06 27.61 -9.07 26.86 C-9.07 25.33 -9.07 23.8 -9.07 22.28 C-9.06 19.94 -9.09 17.6 -9.11 15.26 C-9.12 13.77 -9.12 12.29 -9.11 10.8 C-9.12 10.1 -9.13 9.4 -9.14 8.68 C-9.1 3.86 -9.1 3.86 -7.59 1.67 C-5 -0.18 -3.16 -0.01 0 0 Z " fill="#360F02" transform="translate(520.7516326904297,594.6392364501953)"/>
<path d="M0 0 C1 3 1 3 0 6 C-0.15 7.7 -0.25 9.4 -0.32 11.11 C-0.36 12.09 -0.4 13.07 -0.44 14.08 C-0.48 15.11 -0.52 16.13 -0.56 17.19 C-0.58 17.71 -0.58 17.71 -0.69 20.33 C-0.8 22.88 -0.9 25.44 -1 28 C-2.42 27.86 -3.83 27.71 -5.25 27.56 C-5.64 27.52 -5.64 27.52 -7.64 27.32 C-9.83 27.02 -11.87 26.55 -14 26 C-21.33 25.16 -26.86 25.39 -32.8 30 C-47.16 43.05 -57.84 59.67 -66.8 76.73 C-68 79 -69.24 81.24 -70.49 83.48 C-77.1 95.46 -82.17 107.88 -87.01 120.67 C-88 123 -88 123 -90 126 C-90.3 121.84 -89.77 119.02 -87.99 115.26 C-86.14 111.02 -84.76 106.59 -83.28 102.21 C-82.12 99.3 -80.94 97.4 -79 95 C-77.97 92.68 -76.97 90.35 -76 88 C-75.02 85.99 -74.02 83.99 -73 82 C-72.6 81.16 -72.19 80.33 -71.77 79.47 C-69.36 74.75 -66.75 70.16 -64.12 65.56 C-63.61 64.65 -63.09 63.73 -62.56 62.79 C-58.62 55.88 -54.64 49.64 -49 44 C-48.07 42.74 -47.16 41.46 -46.25 40.19 C-43.49 36.43 -40.4 33.52 -36.82 30.54 C-35 29 -35 29 -32.75 26.62 C-29.28 23.41 -24.55 23.68 -20 23.31 C-18.78 23.21 -17.57 23.1 -16.31 22.99 C-12.96 23 -11.86 23.54 -9 25 C-6.25 24.62 -6.25 24.62 -4 24 C-3.96 22.85 -3.93 21.71 -3.89 20.53 C-3.82 19 -3.75 17.47 -3.69 15.94 C-3.66 15.19 -3.64 14.43 -3.62 13.66 C-3.37 8.45 -2.32 4.68 0 0 Z " fill="#401304" transform="translate(336,300)"/>
<path d="M0 0 C0.66 0 1.32 0 2 0 C2.31 5.11 1.96 7.76 -1.22 11.86 C-4.22 15.07 -7.42 18.07 -10.62 21.06 C-12.26 22.63 -13.89 24.2 -15.52 25.77 C-16.54 26.74 -17.55 27.71 -18.57 28.67 C-21.26 31.21 -23.75 33.84 -26.16 36.65 C-30.43 41.6 -35.11 46.14 -39.78 50.71 C-42.53 53.39 -45.25 56.09 -47.98 58.78 C-51.44 62.19 -54.9 65.59 -58.37 68.98 C-61.2 71.73 -64.02 74.51 -66.82 77.29 C-67.89 78.34 -68.96 79.39 -70.03 80.43 C-71.54 81.88 -73.02 83.36 -74.5 84.83 C-75.35 85.67 -76.19 86.5 -77.07 87.35 C-79.42 90.58 -79.73 93.06 -80 97 C-80.66 96.67 -81.32 96.34 -82 96 C-82.52 92.4 -82.82 90.18 -80.69 87.13 C-80.4 86.81 -80.4 86.81 -78.95 85.22 C-78.31 84.53 -77.67 83.83 -77.01 83.11 C-73.87 79.82 -70.68 76.59 -67.43 73.41 C-65.94 71.94 -64.44 70.46 -62.95 68.99 C-62.17 68.22 -61.39 67.45 -60.59 66.66 C-56.42 62.56 -52.28 58.45 -48.13 54.33 C-42.86 49.12 -37.59 43.9 -32.31 38.7 C-28.02 34.49 -23.75 30.26 -19.48 26.01 C-17.86 24.4 -16.23 22.8 -14.6 21.2 C-12.32 18.97 -10.05 16.72 -7.8 14.46 C-7.12 13.81 -6.44 13.15 -5.74 12.48 C-1.69 8.38 -0.14 5.81 0 0 Z " fill="#461904" transform="translate(446,505)"/>
<path d="M0 0 C23.26 23.26 24.12 83.51 24.25 114.62 C24.26 115.36 24.26 116.1 24.27 116.85 C24.28 118.96 24.27 121.06 24.27 123.16 C24.26 124.39 24.26 125.61 24.26 126.87 C24.01 129.83 23.56 131.51 22 134 C21.98 133.05 21.96 132.11 21.94 131.14 C21.25 99.42 21.25 99.42 20.06 86.44 C19.99 85.61 19.91 84.78 19.84 83.93 C19.34 78.97 18.47 74.16 17.45 69.28 C16.9 66.49 16.59 63.71 16.38 60.88 C16.3 59.94 16.23 59.01 16.15 58.05 C16.1 57.38 16.05 56.7 16 56 C15.67 56 15.34 56 15 56 C14.78 54.79 14.56 53.58 14.34 52.33 C11.39 36.54 7.65 20.94 0.88 6.31 C0 4 0 4 0 0 Z " fill="#B05624" transform="translate(767,400)"/>
<path d="M0 0 C3.53 2.24 4.63 4.09 6 8 C6.33 8.5 6.33 8.5 8 11 C9.62 13.87 11.23 16.75 12.81 19.64 C15.17 23.85 17.85 27.35 21 31 C21.66 31.99 22.32 32.98 23 34 C23.54 34.68 24.07 35.36 24.62 36.06 C26 38 26 38 26 40 C26.66 40 27.32 40 28 40 C28.27 40.6 28.54 41.2 28.81 41.81 C30 44 30 44 31.62 45.62 C32.08 46.08 32.53 46.53 33 47 C33 47.66 33 48.32 33 49 C33.62 49.31 34.24 49.62 34.88 49.94 C38.73 51.86 39.76 53.27 42 57 C42.33 57.16 42.33 57.16 44 58 C44 58.99 44 59.98 44 61 C44.58 61.27 45.15 61.54 45.75 61.81 C48.07 63.04 50.04 64.25 52 66 C52 66.99 52 67.98 52 69 C52.59 69.09 53.19 69.18 53.8 69.27 C56.59 70.2 57.46 71.44 59.25 73.75 C63.37 78.66 67.63 82.04 73.84 83.81 C77.85 84.05 79.95 82.96 83.5 81.12 C87.74 78.96 91.26 77.56 96 77 C96.33 77.66 96.66 78.32 97 79 C94.92 79.98 92.83 80.96 90.75 81.94 C89.59 82.48 88.43 83.03 87.23 83.59 C81.55 86.07 76.18 86.94 70 86 C66.86 84.51 64.54 82.35 62 80 C61.08 79.19 60.17 78.38 59.22 77.54 C49.54 68.9 40.25 59.9 32.17 49.72 C30.76 47.96 29.33 46.21 27.86 44.5 C18.57 33.57 10.8 21.47 3.75 9 C3.37 8.32 2.98 7.65 2.59 6.95 C0 2.26 0 2.26 0 0 Z " fill="#B85926" transform="translate(266,641)"/>
<path d="M0 0 C0.33 0 0.66 0 1 0 C1.1 4.79 1.17 9.57 1.22 14.36 C1.24 15.99 1.27 17.62 1.3 19.25 C1.35 21.59 1.37 23.93 1.39 26.27 C1.41 27 1.43 27.73 1.45 28.48 C1.46 33.54 1.46 33.54 -0.67 35.69 C-3.57 37.32 -5.46 37.37 -8.78 37.37 C-9.96 37.38 -11.14 37.39 -12.36 37.4 C-13.65 37.39 -14.94 37.38 -16.27 37.37 C-17.65 37.37 -19.03 37.38 -20.4 37.38 C-24.14 37.39 -27.87 37.38 -31.61 37.37 C-35.52 37.36 -39.42 37.36 -43.33 37.36 C-49.89 37.37 -56.45 37.35 -63.01 37.34 C-70.6 37.31 -78.18 37.31 -85.77 37.32 C-93.07 37.32 -100.36 37.32 -107.66 37.31 C-110.77 37.3 -113.88 37.3 -116.98 37.3 C-120.64 37.31 -124.29 37.3 -127.95 37.28 C-129.94 37.27 -131.92 37.28 -133.91 37.28 C-135.09 37.28 -136.26 37.27 -137.47 37.26 C-138.5 37.26 -139.52 37.26 -140.58 37.25 C-143 37 -143 37 -145 35 C-144.29 35 -143.59 35.01 -142.86 35.01 C-125.67 35.07 -108.47 35.12 -91.28 35.16 C-82.97 35.17 -74.65 35.19 -66.34 35.23 C-59.09 35.26 -51.84 35.28 -44.6 35.28 C-40.76 35.29 -36.92 35.3 -33.09 35.32 C-29.47 35.34 -25.86 35.34 -22.25 35.34 C-20.29 35.34 -18.34 35.36 -16.38 35.37 C-15.21 35.37 -14.04 35.37 -12.84 35.36 C-11.83 35.36 -10.81 35.37 -9.77 35.37 C-6.51 34.93 -4.62 33.96 -2 32 C-0.18 26.49 -0.93 20.07 -1 14.31 C-1.03 12.25 -1.05 10.18 -1.06 8.11 C-1.07 7.2 -1.09 6.29 -1.1 5.36 C-1 3 -1 3 0 0 Z " fill="#501B01" transform="translate(659,598)"/>
<path d="M0 0 C0.66 0.33 1.32 0.66 2 1 C1.46 1.52 0.93 2.05 0.37 2.59 C-4.69 7.53 -9.74 12.48 -14.77 17.46 C-17.35 20.01 -19.95 22.56 -22.55 25.1 C-25.07 27.55 -27.57 30.02 -30.06 32.49 C-31.47 33.89 -32.9 35.27 -34.33 36.65 C-41.45 43.77 -41.45 43.77 -42.09 48.13 C-42.06 49.08 -42.03 50.02 -42 51 C-42.66 50.67 -43.32 50.34 -44 50 C-44.51 46.48 -44.83 44.2 -42.76 41.2 C-42.21 40.6 -41.65 39.99 -41.07 39.36 C-40.76 39.02 -40.76 39.02 -39.15 37.26 C-35.27 33.18 -31.35 29.16 -27.38 25.19 C-26.54 24.34 -25.71 23.5 -24.85 22.63 C-24.45 22.22 -24.45 22.22 -22.4 20.17 C-21.67 19.44 -20.95 18.71 -20.2 17.96 C-17.93 15.94 -15.61 14.54 -13 13 C-11.24 11.47 -11.24 11.47 -9.67 9.86 C-9.1 9.29 -8.53 8.71 -7.94 8.12 C-7.36 7.52 -6.78 6.93 -6.19 6.31 C-5.59 5.71 -4.99 5.1 -4.38 4.47 C-2.91 2.99 -1.46 1.49 0 0 Z " fill="#3A1607" transform="translate(408,551)"/>
<path d="M0 0 C-10.14 4.7 -21.32 7.63 -32.56 7.01 C-35.3 7 -37.94 7.34 -40.66 7.7 C-45.28 8.29 -49.92 8.7 -54.56 9.12 C-55.56 9.22 -56.57 9.32 -57.6 9.43 C-63 9.92 -67.67 9.88 -73 9 C-73.99 9.33 -74.98 9.66 -76 10 C-78.01 9.72 -80.01 9.4 -82 9 C-81.67 8.34 -81.34 7.68 -81 7 C-80.54 6.99 -80.54 6.99 -78.2 6.94 C-55.57 6.43 -33.61 5.94 -11.51 0.59 C-11.05 0.48 -11.05 0.48 -8.72 -0.07 C-7.9 -0.28 -7.09 -0.48 -6.25 -0.69 C-3.85 -1.02 -2.28 -0.75 0 0 Z " fill="#3A1304" transform="translate(579,784)"/>
</svg>
