<?xml version="1.0" standalone="no"?>
<!DOCTYPE svg PUBLIC "-//W3C//DTD SVG 20010904//EN"
 "http://www.w3.org/TR/2001/REC-SVG-20010904/DTD/svg10.dtd">
<svg version="1.0" xmlns="http://www.w3.org/2000/svg"
 width="1400.000000pt" height="1400.000000pt" viewBox="0 0 1400.000000 1400.000000"
 preserveAspectRatio="xMidYMid meet">
<metadata>
Created by potrace 1.16, written by Peter Selinger 2001-2019
</metadata>
<g transform="translate(0.000000,1400.000000) scale(0.100000,-0.100000)"
fill="#000000" stroke="none">
<path d="M6535 10655 c-193 -36 -267 -98 -334 -279 -85 -233 -137 -362 -187
-464 -50 -103 -68 -128 -224 -305 -93 -105 -185 -205 -205 -221 -56 -43 -196
-96 -435 -165 -391 -112 -443 -130 -610 -208 -70 -33 -212 -91 -325 -133 -168
-62 -453 -179 -528 -216 -159 -79 -323 -205 -412 -316 -27 -35 -120 -135 -207
-224 -86 -89 -192 -210 -237 -270 -86 -116 -209 -344 -255 -473 -31 -86 -71
-251 -80 -331 -4 -30 -13 -100 -21 -155 -39 -279 -47 -420 -42 -697 6 -349 14
-391 133 -729 4 -13 -9 -24 -55 -48 -188 -95 -216 -133 -300 -406 -104 -335
-110 -389 -62 -490 57 -122 215 -227 473 -316 117 -41 128 -43 238 -43 129 1
232 23 432 94 61 22 117 40 123 40 7 0 111 -59 231 -132 272 -163 361 -201
689 -292 290 -81 393 -93 616 -77 229 17 507 73 669 134 83 32 293 129 435
201 61 30 173 80 250 111 77 31 183 80 235 109 114 65 261 138 265 134 2 -2
-28 -30 -67 -63 -77 -66 -155 -174 -187 -259 -11 -30 -36 -115 -55 -188 -20
-73 -40 -149 -46 -168 -15 -52 -12 -138 7 -177 19 -41 126 -125 254 -198 46
-26 109 -65 139 -85 181 -122 329 -156 505 -115 131 30 356 110 467 166 67 34
71 31 81 -59 4 -30 14 -68 24 -85 30 -50 447 -322 630 -410 108 -52 108 -52
218 -52 122 0 117 -1 385 105 85 34 241 93 345 131 251 92 363 146 420 205 63
64 166 222 219 334 49 106 66 178 66 288 0 65 2 73 18 68 27 -7 224 -43 366
-67 148 -25 188 -22 280 20 169 77 481 300 518 371 32 63 40 137 22 200 -15
53 -76 215 -131 350 -41 99 -106 158 -248 226 -63 31 -115 59 -115 63 0 4 6
30 14 57 18 61 46 219 46 260 0 28 4 32 38 38 20 3 56 6 80 6 66 0 177 29 282
72 52 22 117 49 143 59 168 67 317 176 346 253 26 68 21 205 -15 396 -38 201
-85 310 -167 391 -62 61 -146 104 -342 174 -195 70 -248 93 -243 103 120 236
158 339 232 623 52 201 66 303 66 509 0 171 -7 192 -90 255 -29 23 -59 54 -67
70 -24 45 -12 128 31 213 32 63 36 80 36 146 0 138 -64 409 -125 527 -9 16
-48 71 -88 122 -40 50 -106 145 -147 210 -191 301 -212 329 -277 374 -91 61
-115 65 -236 42 -96 -19 -174 -40 -412 -111 -55 -17 -153 -45 -218 -64 -65
-18 -126 -36 -137 -39 -11 -4 -20 -3 -20 2 0 10 159 134 265 208 131 91 216
157 231 180 12 18 13 31 4 71 -35 161 -119 226 -410 318 -195 61 -225 66 -425
66 -383 0 -503 -31 -725 -184 -119 -82 -182 -116 -291 -154 -110 -39 -172 -50
-337 -62 -157 -12 -204 -26 -379 -115 -118 -59 -339 -142 -350 -132 -2 3 7 73
21 157 14 84 26 167 26 186 0 54 -36 137 -77 176 -72 68 -240 138 -398 163
-107 18 -176 18 -270 0z m-1735 -2137 c0 -5 -16 -8 -36 -8 -19 0 -33 3 -31 8
3 4 19 7 36 7 17 0 31 -3 31 -7z m189 -4 c3 -4 -34 -4 -82 -2 -48 3 -91 9 -95
13 -4 4 33 5 82 1 49 -3 92 -9 95 -12z m-416 -11 c-18 -2 -48 -2 -65 0 -18 2
-4 4 32 4 36 0 50 -2 33 -4z m596 -14 c12 -7 5 -8 -24 -3 -22 3 -62 10 -90 15
-43 7 -39 7 24 3 40 -2 81 -9 90 -15z m-814 1 c-33 -4 -67 -3 -75 1 -9 5 17 8
60 7 75 -1 75 -1 15 -8z m-155 -10 c0 -5 -11 -10 -24 -10 -13 0 -39 -2 -57 -5
-20 -2 -14 1 16 9 64 18 65 18 65 6z m-145 -35 c-16 -8 -37 -14 -45 -14 -8 0
-1 6 15 14 17 7 37 13 45 13 8 0 2 -6 -15 -13z m-105 -33 c0 -5 -17 -14 -39
-20 -57 -18 -62 -14 -11 8 25 10 46 18 48 19 1 1 2 -3 2 -7z m1590 -42 c61
-31 101 -59 85 -60 -6 0 -22 8 -35 17 -14 10 -54 33 -90 51 -36 18 -54 30 -40
26 14 -4 50 -19 80 -34z m-1861 -105 c-19 -14 -47 -36 -63 -50 -17 -13 -32
-23 -34 -20 -5 5 46 50 87 77 40 27 49 21 10 -7z m1331 -41 c94 -5 153 -18
215 -43 11 -5 38 -14 61 -20 35 -9 158 -67 219 -104 39 -23 144 -108 200 -163
39 -38 92 -107 153 -199 33 -49 107 -152 164 -229 145 -194 203 -285 260 -406
27 -58 55 -116 62 -130 35 -65 90 -214 117 -319 45 -173 51 -333 24 -640 -12
-146 -85 -391 -156 -527 -37 -72 -143 -224 -161 -232 -5 -2 -8 -8 -8 -14 0
-22 -110 -138 -367 -384 -86 -82 -257 -226 -277 -233 -6 -2 -18 -9 -26 -16
-32 -28 -179 -95 -226 -104 -110 -21 -146 -24 -309 -23 -158 0 -415 21 -524
42 -282 54 -453 137 -646 314 -116 106 -132 119 -226 176 -175 108 -254 176
-329 285 -33 48 -114 200 -124 235 -87 280 -116 473 -110 745 2 99 6 200 9
225 3 25 12 92 20 150 24 169 106 488 150 585 12 28 35 81 49 118 30 76 88
189 130 257 33 51 117 135 262 265 155 138 207 177 294 220 30 15 66 33 80 40
28 14 139 51 215 70 256 67 454 81 805 59z m927 -209 c45 -60 45 -60 2 -13
-54 59 -105 120 -131 156 -36 50 83 -82 129 -143z m-2406 28 c9 -10 9 -14 2
-10 -9 6 -13 -18 -16 -95 -3 -103 -3 -103 -5 10 -1 61 0 112 2 112 2 0 10 -8
17 -17z m-276 -200 c-10 -16 -24 -32 -32 -36 -21 -13 -15 -29 10 -23 12 3 16
3 10 0 -7 -3 -13 -12 -13 -20 0 -8 -4 -14 -10 -14 -5 0 -10 7 -10 15 0 25 -13
17 -63 -37 -26 -29 -43 -44 -38 -32 10 22 149 174 158 174 3 0 -3 -12 -12 -27z
m2929 -52 c33 -27 75 -64 91 -83 30 -33 30 -33 -4 -3 -19 17 -41 36 -49 43 -7
7 -30 25 -50 40 -46 33 -66 52 -57 52 4 0 35 -22 69 -49z m310 -391 c8 -25 18
-54 22 -64 5 -13 4 -17 -3 -13 -6 4 -14 19 -17 34 -4 16 -25 65 -47 110 -21
45 -39 85 -39 90 1 17 71 -114 84 -157z m-3518 78 c-21 -35 -31 -72 -16 -63 8
5 11 3 8 -6 -3 -8 -12 -13 -21 -13 -10 1 -18 -9 -22 -27 -4 -16 -11 -29 -17
-29 -6 0 -8 -7 -4 -15 3 -8 1 -15 -4 -15 -4 0 -11 -13 -15 -30 -6 -28 -25 -52
-25 -31 0 27 109 251 123 251 4 0 1 -10 -7 -22z m3634 -418 c0 -9 4 -20 9 -25
15 -16 50 -115 40 -115 -5 0 -9 6 -9 13 0 6 -12 35 -25 62 -14 28 -25 58 -25
67 0 9 -4 18 -9 20 -5 2 -11 19 -15 38 -6 35 -6 35 14 -5 11 -22 20 -47 20
-55z m-3830 -402 c-7 -73 -15 -153 -20 -178 -13 -79 -11 4 5 150 8 74 15 144
15 154 0 11 3 17 6 13 3 -3 1 -66 -6 -139z m3974 -56 c2 -43 2 -60 -1 -39 -2
20 -7 36 -11 33 -4 -2 -8 17 -10 42 -1 26 -4 61 -7 77 -5 30 -5 30 11 -3 8
-19 16 -68 18 -110z m6 -208 c0 -47 -3 -83 -7 -81 -8 5 -5 167 3 167 2 0 4
-39 4 -86z m-4013 -221 c-2 -37 -3 -9 -3 62 0 72 1 102 3 68 2 -34 2 -93 0
-130z m7133 97 c0 -5 -20 -10 -44 -10 -25 0 -48 -4 -51 -10 -3 -5 -23 -10 -43
-9 -37 1 -37 1 -7 10 17 5 55 13 85 18 30 5 56 9 58 10 1 0 2 -3 2 -9z m88
-15 c11 -10 -8 -18 -20 -7 -7 5 -22 12 -33 15 -11 2 -5 3 14 1 18 -2 36 -6 39
-9z m-288 -22 c-87 -13 -92 -14 -86 -29 4 -11 0 -10 -18 3 -24 18 -24 18 7 24
18 4 52 6 77 6 25 0 34 -1 20 -4z m-2933 -150 c-2 -16 -4 -3 -4 27 0 30 2 43
4 28 2 -16 2 -40 0 -55z m2963 14 c16 4 19 2 13 -13 -6 -18 -6 -18 15 0 22 19
22 19 23 0 1 -17 2 -17 6 -1 7 26 55 18 71 -12 7 -13 10 -26 7 -29 -2 -3 -7 3
-11 12 -3 9 -10 16 -15 16 -4 0 -5 -8 -2 -17 5 -12 2 -15 -10 -10 -56 23 -53
22 -35 4 9 -9 31 -18 50 -19 18 -1 39 -10 46 -20 7 -10 19 -18 25 -18 7 0 3 7
-7 15 -11 8 -17 17 -14 20 8 8 38 -6 38 -17 0 -6 6 -5 15 2 8 7 15 19 15 26 0
8 9 14 21 14 11 0 17 -5 14 -10 -10 -15 23 -24 40 -10 8 6 19 9 25 5 5 -3 10
0 10 7 1 9 5 7 14 -5 11 -14 19 -16 40 -7 14 5 26 7 26 4 0 -4 8 0 17 7 15 12
16 12 10 -3 -7 -21 4 -23 22 -5 10 10 11 8 5 -7 -6 -15 -3 -17 14 -12 15 5 22
2 27 -14 4 -11 11 -18 16 -15 5 4 9 1 9 -4 0 -6 9 -11 21 -11 11 0 18 -4 14
-9 -3 -6 2 -14 11 -19 15 -8 15 -11 0 -40 -16 -30 -16 -31 12 -35 26 -4 26 -4
5 -12 -26 -8 -31 -25 -8 -25 8 0 15 -4 15 -10 0 -6 -3 -9 -7 -8 -5 2 -10 -1
-11 -7 -2 -5 -9 -14 -15 -18 -7 -5 -4 -6 8 -3 11 3 34 8 50 12 17 4 35 10 40
14 6 4 21 10 35 12 14 3 34 9 45 13 11 4 7 -2 -9 -13 -17 -12 -47 -24 -69 -27
-21 -4 -73 -24 -116 -45 -121 -59 -143 -65 -189 -52 -47 14 -76 46 -140 157
-39 66 -55 84 -92 103 -24 12 -59 22 -76 22 -43 0 -64 9 -64 27 0 9 -14 41
-32 72 -23 41 -26 50 -10 34 14 -14 29 -19 42 -16z m575 12 c25 -12 44 -24 41
-26 -2 -3 -28 7 -58 21 -29 14 -47 26 -40 26 7 0 33 -10 57 -21z m-895 -54
c-12 -25 -25 -44 -27 -41 -3 3 5 26 17 51 12 25 25 44 27 41 3 -3 -5 -26 -17
-51z m-6611 -144 c7 -52 16 -101 20 -110 5 -9 12 -34 16 -56 4 -22 10 -44 15
-50 4 -5 10 -23 14 -40 5 -22 4 -26 -4 -15 -20 29 -59 168 -70 251 -6 46 -14
95 -17 109 -4 17 -2 22 4 15 6 -5 16 -52 22 -104z m6808 -43 c3 -39 2 -68 -4
-68 -5 0 -7 15 -5 34 4 30 2 34 -15 30 -20 -5 -51 21 -39 33 3 3 6 1 6 -5 0
-7 7 -12 15 -12 8 0 15 9 15 21 0 11 -3 18 -7 16 -5 -3 -8 19 -9 48 0 53 0 53
19 12 11 -23 22 -72 24 -109z m1051 18 c22 -24 18 -23 -23 9 -68 53 -76 61
-37 39 18 -10 45 -32 60 -48z m-88 -36 c-36 -12 -60 -12 -60 0 0 6 19 10 43 9
36 -1 38 -2 17 -9z m-3860 -132 c-13 -68 -27 -130 -32 -138 -6 -10 -7 -6 -3
15 3 17 12 68 20 115 20 118 26 142 32 136 3 -3 -5 -60 -17 -128z m4039 75 c6
-12 11 -30 11 -40 0 -10 -9 -1 -21 22 -12 22 -25 44 -30 50 -5 5 -9 13 -9 19
0 12 33 -23 49 -51z m-922 15 c11 -13 32 -45 48 -73 66 -117 140 -175 225
-175 37 0 48 -7 124 -77 86 -81 106 -110 37 -55 -44 35 -53 39 -45 18 6 -15
-22 -77 -34 -74 -17 3 -42 -16 -42 -33 0 -20 -15 -26 -25 -9 -10 17 -25 11
-25 -9 0 -10 -7 -22 -16 -25 -13 -5 -14 -9 -4 -21 10 -12 10 -15 0 -15 -8 0
-10 -8 -6 -25 5 -20 3 -25 -14 -25 -21 0 -28 -16 -9 -22 8 -3 9 -13 4 -28 -8
-25 -8 -25 -16 -2 -8 22 -30 25 -56 9 -7 -4 -24 -5 -38 -1 -54 13 -114 -33
-99 -78 3 -11 2 -18 -3 -15 -5 3 -17 -5 -27 -19 -33 -43 -36 -25 -5 27 16 29
54 75 84 103 46 44 56 61 75 124 20 68 20 75 5 98 -8 13 -19 24 -23 24 -16 0
-51 -46 -72 -93 -16 -35 -31 -52 -60 -67 -46 -24 -61 -45 -85 -120 -10 -30
-21 -59 -26 -64 -5 -6 -9 -21 -10 -35 0 -15 -5 -35 -10 -46 -9 -20 -6 21 7 86
3 17 -1 32 -10 42 -9 9 -16 20 -16 26 0 5 -9 13 -20 16 -25 8 -50 54 -50 93 0
16 -9 39 -20 52 -11 13 -20 29 -20 37 0 8 -5 11 -11 7 -9 -5 -10 1 -5 19 5 21
3 25 -9 21 -17 -7 -21 11 -4 21 7 5 5 15 -6 32 -9 14 -14 27 -11 31 3 3 -2 14
-11 25 -17 20 -17 20 0 14 40 -15 79 31 92 108 4 22 23 72 42 112 34 72 34 72
91 76 31 2 64 4 73 5 8 1 25 -8 36 -20z m823 -38 c-8 -5 -22 -10 -31 -10 -8 0
-35 -18 -60 -39 -48 -44 -68 -47 -25 -4 39 39 77 61 106 62 20 1 22 -1 10 -9z
m114 -240 c-9 -105 -9 -105 -14 -40 -3 36 -2 67 3 68 4 2 8 43 9 90 1 60 3 71
6 37 2 -27 0 -97 -4 -155z m-2536 73 c-3 -54 -13 -120 -22 -146 -26 -86 -30
-167 -11 -260 17 -85 17 -85 -20 -136 -49 -68 -118 -115 -168 -113 -26 0 -37
-3 -34 -11 5 -13 10 -13 42 -1 15 5 12 -1 -12 -27 -43 -45 -62 -95 -65 -167
-3 -58 -18 -65 -18 -9 0 19 -7 30 -22 36 -32 12 -68 65 -66 95 1 13 5 23 9 20
14 -8 39 40 39 73 0 34 16 43 38 21 6 -6 15 -8 19 -4 4 4 1 11 -6 15 -11 7
-10 13 4 35 10 14 21 26 26 26 5 0 9 7 9 15 0 8 -5 15 -11 15 -6 0 -9 7 -6 14
4 11 1 13 -11 9 -15 -6 -15 -5 -3 10 7 9 9 17 4 17 -5 0 -16 18 -23 40 -10 31
-11 43 -2 52 13 13 16 38 5 38 -5 0 -21 -22 -38 -49 -16 -27 -32 -48 -34 -46
-16 17 348 531 379 534 3 1 2 -43 -2 -96z m963 43 c-38 -65 -38 -79 -6 -104
14 -11 25 -23 25 -26 0 -4 -16 6 -35 21 -19 15 -35 32 -35 36 0 11 71 127 77
127 3 0 -9 -24 -26 -54z m1235 17 c-4 -4 -19 -9 -34 -10 -34 -4 -70 -22 -76
-39 -6 -15 15 -74 26 -74 4 0 8 -4 8 -10 0 -22 -16 -7 -40 36 -24 47 -24 47
10 75 25 21 45 29 74 29 22 0 36 -3 32 -7z m-894 -30 c-6 -10 -23 -29 -39 -43
-28 -25 -28 -25 -8 0 11 13 26 30 33 38 6 7 12 18 12 24 0 6 3 9 6 6 3 -4 1
-15 -4 -25z m-1128 -188 c25 -27 49 -98 49 -143 0 -15 -4 -77 -8 -138 -11
-154 2 -191 104 -293 42 -42 115 -110 164 -150 80 -67 105 -101 75 -101 -6 0
-9 -3 -6 -6 4 -3 18 2 32 12 15 9 29 14 32 11 6 -5 -56 -37 -261 -132 -138
-65 -417 -204 -430 -215 -9 -8 -14 -6 -19 5 -3 9 -2 14 3 10 5 -3 38 11 73 30
34 20 71 38 80 41 9 3 19 12 21 18 4 10 -11 13 -59 11 -36 -1 -67 2 -70 6 -2
5 -10 6 -17 3 -7 -2 -20 9 -30 26 -10 16 -22 30 -28 30 -5 0 -9 7 -9 16 0 14
-3 14 -15 4 -13 -10 -15 -9 -15 8 0 24 -54 82 -76 82 -9 0 -12 -4 -9 -10 11
-18 -15 -10 -36 11 -26 26 -20 33 17 19 24 -8 26 -8 14 2 -8 7 -14 23 -12 36
2 12 -1 22 -7 22 -6 0 -2 9 9 20 11 11 27 36 35 57 19 46 40 69 77 87 26 13
29 13 46 -9 10 -13 46 -76 81 -141 76 -146 93 -169 116 -161 15 6 16 17 10 85
-6 65 -16 95 -61 189 -30 62 -54 116 -54 121 0 4 13 20 28 35 62 59 75 106 83
287 4 91 12 182 18 203 7 21 14 77 16 125 2 48 5 89 6 92 2 3 5 -37 6 -87 3
-81 7 -96 27 -118z m584 -98 c44 -35 29 -35 -17 0 -52 39 -171 156 -171 168 0
5 35 -24 78 -66 42 -42 92 -88 110 -102z m-6004 35 c4 -12 11 -22 16 -22 5 0
11 -13 15 -30 4 -16 11 -32 16 -36 9 -5 39 -69 39 -82 0 -3 -4 -2 -10 4 -10
10 -110 201 -110 210 0 12 28 -24 34 -44z m6443 -55 c8 -16 12 -31 9 -35 -3
-3 -6 0 -6 6 0 6 -21 37 -46 69 -44 54 -44 56 -10 23 21 -19 44 -48 53 -63z
m1312 29 c-9 -8 -10 -5 -5 14 3 14 6 32 7 40 1 8 4 2 6 -14 3 -16 -1 -34 -8
-40z m-289 22 c0 -5 -3 -7 -7 -6 -5 0 -16 -2 -25 -6 -10 -4 -23 -6 -30 -3 -7
3 -2 6 10 6 15 1 26 9 29 22 4 16 8 17 14 7 5 -7 9 -16 9 -20z m-3840 -90
c-26 -76 -68 -166 -81 -173 -13 -9 -12 -5 21 58 17 32 35 78 41 103 6 24 15
47 20 50 5 3 9 15 10 27 0 12 3 16 6 10 2 -7 -5 -41 -17 -75z m4119 -27 c-7
-39 -15 -71 -18 -71 -21 1 -162 49 -145 49 39 2 128 -19 137 -32 5 -7 6 -2 3
15 -3 15 -2 30 4 33 5 3 10 17 10 30 0 26 10 58 17 52 2 -2 -2 -36 -8 -76z
m-305 -10 c6 -9 -114 -25 -122 -16 -3 3 4 5 16 5 12 0 22 5 22 10 0 12 77 13
84 1z m-1634 -43 c0 -4 10 -9 23 -11 12 -3 -3 -2 -33 0 -77 7 -103 -25 -44
-52 20 -10 20 -12 6 -45 -13 -29 -16 -31 -20 -15 -2 10 1 21 7 23 16 5 13 22
-4 22 -9 0 -21 12 -27 26 -11 23 -9 28 10 42 21 17 82 24 82 10z m455 -131 c9
-41 15 -88 13 -103 -2 -19 -10 5 -22 66 -18 96 -39 150 -56 150 -6 0 -10 6
-10 13 0 6 14 -2 29 -20 21 -22 34 -53 46 -106z m905 79 c0 -8 -101 -78 -106
-74 -2 3 6 12 19 21 13 9 31 22 38 30 8 7 21 16 29 20 21 8 20 8 20 3z m-1320
-81 c-7 -50 -7 -50 -9 -4 0 25 2 49 6 52 10 11 11 5 3 -48z m1134 -78 c-22
-24 -41 -42 -43 -40 -5 3 70 83 77 83 3 0 -13 -19 -34 -43z m-6672 -79 c10
-13 31 -41 48 -63 17 -22 65 -73 108 -114 42 -41 58 -60 35 -42 -69 53 -283
291 -283 316 0 6 68 -66 92 -97z m4458 35 c-7 -21 -16 -42 -21 -47 -5 -6 -9
-21 -10 -35 0 -15 -5 -35 -10 -46 -17 -37 1 57 23 118 23 63 37 72 18 10z
m1116 12 c3 -14 10 -25 15 -25 5 0 9 -12 8 -27 0 -28 0 -28 -11 -3 -6 14 -17
37 -24 53 -7 15 -8 27 -3 27 5 0 11 -11 15 -25z m1703 1 c65 -24 111 -43 201
-84 25 -11 92 -41 150 -66 106 -47 160 -86 160 -116 0 -10 -21 -27 -52 -43
-48 -23 -58 -25 -108 -16 -30 5 -92 7 -136 3 -81 -6 -81 -6 -88 20 -4 17 -30
42 -81 76 -77 52 -94 59 -96 38 -3 -27 4 -42 47 -104 42 -63 54 -104 36 -131
-14 -23 -96 -45 -172 -46 -70 -2 -80 1 -131 31 -30 19 -92 64 -137 102 -45 38
-87 70 -94 72 -7 3 11 33 44 75 155 194 290 250 457 189z m-1299 -110 c0 -72
-1 -74 -22 -68 -19 5 -20 7 -5 10 14 3 17 15 17 68 0 35 2 64 5 64 3 0 5 -33
5 -74z m283 -138 c8 -5 7 -8 -5 -8 -16 0 -18 11 -16 108 2 107 2 107 5 7 3
-63 8 -102 16 -107z m-3233 119 c-91 -89 -170 -153 -170 -139 0 6 4 12 9 14
15 6 101 81 160 140 31 32 61 58 66 58 6 0 -24 -33 -65 -73z m3463 -57 c-21
-27 -41 -49 -46 -50 -4 0 9 23 30 50 20 28 41 50 46 50 5 0 -9 -22 -30 -50z
m-5993 -152 c0 -12 5 -15 18 -11 15 6 15 5 4 -10 -9 -10 -11 -27 -7 -47 7 -31
25 -42 25 -15 0 8 7 15 15 15 17 0 18 -4 8 -38 -4 -18 -8 -20 -14 -10 -5 8 -9
9 -9 2 0 -15 29 -39 37 -30 3 3 2 6 -4 6 -8 0 -8 8 0 25 14 30 33 27 29 -3 -2
-12 2 -22 7 -22 6 0 11 -4 11 -10 0 -5 -10 -10 -22 -10 -22 0 -22 0 0 -20 31
-29 27 -35 -7 -11 -48 34 -79 79 -96 133 -17 60 -21 112 -5 88 5 -8 10 -23 10
-32z m4093 -24 c17 -10 50 -35 72 -57 44 -43 49 -46 -72 41 -49 35 -50 41 0
16z m-1916 -71 c-42 -43 -97 -101 -124 -128 -40 -42 -34 -32 12 20 6 7 21 27
35 45 30 41 64 76 108 113 59 48 47 29 -31 -50z m3413 -41 c80 -23 190 -53
245 -68 114 -31 141 -43 172 -76 23 -24 23 -24 -10 -36 -22 -8 -46 -32 -77
-79 -25 -37 -67 -92 -93 -122 -47 -53 -121 -150 -142 -185 -7 -11 -35 -19 -90
-26 -146 -19 -221 -40 -268 -73 -73 -53 -222 -196 -239 -230 -9 -18 -36 -89
-59 -160 -28 -83 -46 -124 -52 -118 -7 7 -6 15 2 25 8 10 10 27 6 47 -5 22 -4
29 4 25 15 -10 14 -6 -8 38 -11 21 -17 44 -14 52 3 8 0 14 -6 14 -6 0 -11 -8
-12 -17 0 -13 -3 -12 -10 5 -5 13 -6 29 -2 35 4 6 0 8 -10 4 -10 -4 -17 -1
-17 6 0 9 -2 9 -9 -1 -6 -10 -10 -10 -20 2 -7 8 -9 21 -5 27 4 7 3 9 -3 6 -12
-8 -27 38 -18 53 6 9 -8 14 -27 11 -5 0 -8 8 -8 19 0 11 -3 20 -7 20 -5 0 -9
11 -9 25 -1 14 2 25 8 25 10 0 43 29 37 34 -15 10 -83 23 -99 19 -12 -3 -20 0
-20 7 0 10 15 11 59 7 48 -5 63 -3 77 10 18 19 54 97 54 119 0 19 -59 18 -134
-1 -58 -15 -58 -15 -145 74 -102 105 -120 80 138 200 118 56 180 80 195 76 14
-4 17 -3 8 3 -9 6 13 21 73 50 94 46 99 46 150 -8 17 -18 62 -53 100 -78 39
-24 72 -46 74 -48 2 -2 -9 -20 -24 -40 -15 -19 -28 -50 -29 -67 -1 -30 1 -32
34 -30 44 2 109 68 130 132 13 42 13 44 -11 63 -13 10 -46 30 -74 43 -46 23
-173 113 -174 125 -2 12 190 112 204 106 6 -2 75 -22 155 -44z m-1875 -2 c28
-10 45 -19 38 -20 -6 0 -24 5 -40 11 -15 6 -68 11 -117 11 -55 0 -83 4 -75 9
26 16 142 10 194 -11z m560 -59 c19 -25 34 -36 41 -30 15 12 26 -1 13 -17 -7
-9 -7 -19 1 -34 20 -37 6 -31 -20 8 -13 20 -37 54 -53 75 -16 20 -25 37 -20
37 4 -1 22 -18 38 -39z m-858 18 c-9 -6 -15 -15 -11 -20 6 -11 108 -10 172 1
23 4 45 4 48 -1 3 -5 13 -9 23 -9 10 0 31 -11 47 -25 16 -14 35 -25 42 -25 12
0 61 -28 72 -40 3 -4 13 -9 23 -13 9 -3 17 -15 17 -26 0 -15 -5 -19 -17 -14
-12 3 -10 0 5 -12 15 -11 20 -21 14 -28 -5 -7 -12 -24 -16 -39 -6 -28 -6 -28
24 2 17 17 34 30 38 30 4 0 -41 -48 -100 -107 -60 -58 -108 -112 -108 -120 0
-19 -30 -76 -37 -70 -2 3 0 14 6 25 22 40 6 49 -86 50 -54 0 -100 -5 -121 -14
-50 -21 -59 -18 -72 21 -15 45 -56 73 -180 124 -52 21 -95 42 -97 48 -8 23
288 274 321 273 6 0 3 -5 -7 -11z m538 -73 c19 -15 18 -16 -10 -5 -16 6 -37
16 -45 24 -8 7 -25 16 -37 19 -13 4 -23 12 -23 17 0 10 82 -29 115 -55z m164
-175 c11 -25 22 -59 25 -76 3 -16 3 -23 0 -15 -35 83 -56 121 -73 130 -11 5
-18 16 -15 24 3 7 -13 29 -36 49 -22 20 -40 40 -40 44 0 20 122 -117 139 -156z
m-3754 92 c17 -8 55 -20 85 -28 57 -14 158 -50 168 -60 3 -3 -2 -5 -11 -5 -9
0 -19 5 -22 10 -3 6 -15 10 -25 10 -28 0 -195 57 -239 81 -42 23 -6 17 44 -8z
m1495 -17 c0 -9 -150 -58 -162 -53 -8 4 -7 6 5 6 10 1 37 10 60 20 51 23 97
36 97 27z m-940 -145 c43 -10 43 -10 -18 -6 -35 3 -71 10 -80 15 -19 12 18 9
98 -9z m470 9 c-14 -4 -36 -8 -50 -9 -20 -1 -22 1 -10 9 8 5 31 9 50 9 32 -1
33 -2 10 -9z m-102 -17 c-15 -2 -42 -2 -60 0 -18 2 -6 4 27 4 33 0 48 -2 33
-4z m-165 -10 c-29 -2 -77 -2 -105 0 -29 2 -6 3 52 3 58 0 81 -1 53 -3z m2066
-103 c80 -33 85 -37 108 -86 19 -41 23 -63 20 -110 -3 -59 -3 -59 -5 1 -2 61
-2 61 -39 75 -21 8 -41 13 -45 12 -5 -1 -8 5 -8 14 0 9 -14 21 -30 27 -18 7
-28 17 -26 24 3 7 1 13 -4 13 -6 0 -10 7 -10 15 0 8 -5 15 -11 15 -5 0 -8 -4
-4 -9 3 -6 -3 -10 -12 -9 -10 0 -33 -3 -50 -7 -19 -4 -33 -4 -33 2 0 5 -9 9
-20 9 -15 0 -22 -10 -29 -41 -5 -22 -9 -31 -10 -20 -1 23 13 82 35 141 14 41
14 41 52 5 21 -20 74 -51 121 -71z m426 -72 c25 -11 25 -11 -19 -27 -25 -9
-61 -29 -80 -45 -31 -24 -36 -34 -36 -70 0 -22 -7 -68 -16 -101 -8 -33 -19
-76 -24 -95 -8 -29 -8 -26 -4 19 3 30 12 72 19 95 8 23 15 60 15 84 0 38 5 48
57 97 31 30 57 55 59 55 2 0 15 -5 29 -12z m923 3 c9 -5 34 -16 55 -25 23 -10
37 -22 36 -33 0 -11 -3 -13 -6 -5 -5 12 -83 52 -102 52 -6 0 -11 5 -11 10 0
12 5 13 28 1z m-1304 -66 c6 -16 -30 -55 -51 -55 -7 0 -13 -5 -13 -11 0 -5 -4
-8 -9 -4 -8 5 -9 29 -2 70 1 6 6 0 11 -12 8 -19 12 -20 34 -10 14 7 21 14 16
15 -12 5 -13 22 -1 22 5 0 11 -7 15 -15z m-107 -56 c6 -6 9 -18 6 -25 -3 -10
0 -12 10 -9 8 4 17 0 20 -8 4 -11 -1 -14 -19 -12 -16 1 -24 -3 -24 -13 0 -9 7
-13 20 -9 11 3 23 1 26 -4 3 -5 1 -9 -5 -9 -6 0 -8 -7 -4 -16 5 -14 3 -14 -15
-3 -27 17 -37 7 -22 -20 11 -22 5 -26 -30 -21 -9 1 -6 -6 9 -19 13 -12 28 -21
33 -21 4 0 8 -5 8 -10 0 -13 -68 21 -142 71 -67 46 -72 53 -59 76 9 16 10 16
11 -4 0 -26 27 -31 37 -7 5 13 9 12 29 -7 30 -28 51 -19 60 26 8 43 0 54 -26
37 -28 -17 -39 -14 -16 3 23 18 77 20 93 4z m1011 -84 c-2 -13 -185 -105 -207
-105 -13 0 60 40 84 46 14 3 22 10 19 15 -3 5 4 9 15 9 11 0 26 6 33 13 7 8
19 12 26 9 6 -2 15 3 18 12 8 20 16 21 12 1z m-837 -47 c-6 -17 -11 -62 -11
-100 0 -68 0 -68 -48 -41 -73 42 -104 67 -47 38 61 -31 65 -31 65 -2 0 18 2
19 10 7 7 -11 10 -5 10 23 0 45 22 137 28 119 2 -7 -1 -27 -7 -44z m1105 -2
c-4 -25 -11 -48 -17 -51 -12 -8 -11 6 3 60 15 56 23 51 14 -9z m215 -24 c-6
-12 -11 -50 -11 -87 0 -42 -4 -64 -10 -60 -17 10 -12 111 7 144 19 33 31 35
14 3z m-891 -115 c-44 -23 -160 -58 -178 -55 -9 2 4 10 31 18 26 8 47 19 47
24 0 5 2 7 5 4 3 -3 22 1 43 8 20 7 46 13 57 13 17 1 17 -1 -5 -12z m663 -165
c12 -6 17 -11 11 -11 -7 -1 -22 7 -34 17 -21 17 -22 22 -14 97 l9 80 3 -86 c2
-78 5 -87 25 -97z m297 123 c0 -11 -41 -25 -53 -18 -8 5 -4 9 13 14 33 9 40
10 40 4z m-125 -228 c6 -4 21 -16 34 -27 13 -11 29 -20 34 -20 6 0 7 -3 4 -6
-6 -6 -137 73 -137 82 0 4 52 -18 65 -29z m217 -135 c-11 -3 -119 54 -127 68
-3 5 27 -8 66 -28 39 -20 66 -38 61 -40z"/>
<path d="M3766 7200 c-61 -63 -106 -118 -106 -130 0 -25 63 -96 368 -410 140
-144 251 -265 247 -268 -4 -4 -62 -65 -129 -137 -66 -71 -164 -175 -217 -230
-249 -261 -269 -284 -269 -314 0 -23 20 -49 98 -129 53 -55 104 -102 112 -105
23 -7 63 18 100 60 18 21 93 101 165 178 206 218 537 577 568 613 21 27 27 44
27 83 0 48 -2 52 -89 147 -180 196 -736 753 -752 752 -9 0 -64 -50 -123 -110z"/>
<path d="M5060 5700 l-275 -5 -3 -154 c-2 -117 1 -156 10 -162 18 -11 1130 2
1145 13 8 6 9 50 5 151 -4 114 -8 144 -21 154 -17 13 -295 14 -861 3z"/>
<path d="M9830 5991 c0 -9 41 -23 48 -16 2 2 1 8 -3 14 -8 13 -45 15 -45 2z"/>
<path d="M8098 5553 c-24 -32 -46 -60 -49 -63 -3 -3 -11 -15 -17 -27 -11 -20
-10 -21 17 -18 23 3 30 -1 36 -18 3 -13 8 -17 11 -10 9 22 35 2 28 -21 -5 -17
-2 -16 19 8 13 16 27 45 31 65 7 43 7 121 -1 104 -8 -20 -22 -15 -16 6 11 41
-18 28 -59 -26z"/>
<path d="M7931 5304 c-13 -19 -21 -37 -18 -41 9 -9 44 24 50 48 9 32 -7 29
-32 -7z"/>
<path d="M9654 4225 c-4 -8 -12 -15 -19 -15 -14 0 -25 -22 -25 -48 1 -15 3
-14 16 3 21 27 46 75 39 75 -3 0 -8 -7 -11 -15z"/>
<path d="M11420 5273 c-42 -22 -76 -85 -92 -172 -12 -61 -11 -64 11 -82 53
-43 201 -60 300 -35 36 9 70 21 78 27 18 16 17 121 -2 166 -32 77 -74 101
-183 109 -62 4 -84 2 -112 -13z"/>
<path d="M3765 3691 c-56 -32 -130 -107 -145 -147 -6 -14 -10 -50 -10 -80 0
-72 25 -97 120 -118 82 -19 127 -20 260 -5 130 15 145 26 143 103 -2 79 -17
116 -66 164 -55 54 -167 112 -215 112 -22 0 -57 -12 -87 -29z"/>
<path d="M5785 3682 c-64 -6 -207 -44 -275 -71 -145 -59 -202 -120 -307 -327
-94 -186 -97 -265 -14 -357 46 -51 90 -78 193 -121 256 -106 454 -113 718 -26
244 80 310 141 310 283 0 106 -61 255 -172 422 -55 82 -74 101 -133 134 -85
48 -217 74 -320 63z m160 -264 c3 -3 -34 -43 -82 -89 -48 -46 -109 -105 -135
-131 -47 -46 -47 -46 -116 -23 -39 13 -88 27 -109 30 -66 11 -66 11 -32 65 17
27 42 59 56 69 59 47 240 92 350 88 34 -2 65 -5 68 -9z"/>
<path d="M7465 2961 c-71 -27 -142 -53 -156 -59 -43 -17 -99 -72 -123 -121
-31 -63 -68 -215 -60 -249 33 -140 237 -204 505 -157 160 28 293 91 318 152
25 60 -48 261 -129 355 -54 63 -153 128 -194 128 -17 -1 -89 -22 -161 -49z"/>
</g>
</svg>
