<svg viewBox="0 0 720 200" xmlns="http://www.w3.org/2000/svg">
  <defs>
    <linearGradient id="kTop" x1="0" y1="0" x2="0" y2="1">
      <stop offset="0%" stop-color="#4c463f"/><stop offset="55%" stop-color="#312c28"/><stop offset="100%" stop-color="#201c19"/>
    </linearGradient>
    <linearGradient id="kFace" x1="0" y1="0" x2="0" y2="1">
      <stop offset="0%" stop-color="#2a2421"/><stop offset="100%" stop-color="#140f0d"/>
    </linearGradient>
    <radialGradient id="kA" cx="50%" cy="40%" r="62%">
      <stop offset="0%" stop-color="#fff0cf"/><stop offset="26%" stop-color="#ffc15a"/><stop offset="52%" stop-color="#ff7a1a"/><stop offset="78%" stop-color="#ff3300"/><stop offset="100%" stop-color="#7a1c00"/>
    </radialGradient>
    <radialGradient id="kB" cx="50%" cy="40%" r="62%">
      <stop offset="0%" stop-color="#ffe6a8"/><stop offset="34%" stop-color="#ff9a3a"/><stop offset="66%" stop-color="#ff4d00"/><stop offset="100%" stop-color="#6e1900"/>
    </radialGradient>
    <radialGradient id="kBed" cx="50%" cy="45%" r="55%">
      <stop offset="0%" stop-color="#ff8a2a" stop-opacity="0.9"/><stop offset="45%" stop-color="#ff4d00" stop-opacity="0.42"/><stop offset="100%" stop-color="#ff4d00" stop-opacity="0"/>
    </radialGradient>
    <radialGradient id="kEnd" cx="50%" cy="50%" r="50%">
      <stop offset="0%" stop-color="#ffb24d"/><stop offset="55%" stop-color="#ff5a00"/><stop offset="100%" stop-color="#8f2000"/>
    </radialGradient>
  </defs>
  <!-- icon at left, scaled to ~170px -->
  <g transform="translate(8,18) scale(0.66)">
    <ellipse cx="130" cy="196" rx="116" ry="28" fill="url(#kBed)"/>
    <path d="M52 86 L190 72 Q214 70 218 90 L220 98 Q222 114 198 117 L60 130 Q46 131 44 113 L42 100 Q41 88 52 86 Z" fill="url(#kTop)"/>
    <path d="M44 113 Q46 131 60 130 L198 117 Q222 114 222 134 L222 146 Q222 165 200 167 L62 170 Q46 171 44 153 Z" fill="url(#kFace)"/>
    <ellipse cx="46" cy="134" rx="13" ry="24" fill="#19120e"/>
    <ellipse cx="46" cy="134" rx="8.5" ry="17" fill="url(#kEnd)"/>
    <ellipse cx="46" cy="131" rx="3.5" ry="7" fill="#fff0cf" opacity="0.8"/>
    <ellipse cx="92" cy="172" rx="26" ry="20" fill="url(#kA)"/>
    <ellipse cx="138" cy="176" rx="30" ry="22" fill="url(#kB)"/>
    <ellipse cx="182" cy="170" rx="24" ry="18" fill="url(#kA)"/>
    <ellipse cx="114" cy="160" rx="20" ry="15" fill="url(#kB)"/>
    <ellipse cx="160" cy="158" rx="19" ry="14" fill="url(#kA)"/>
    <ellipse cx="70" cy="162" rx="16" ry="12" fill="url(#kB)"/>
    <circle cx="138" cy="170" r="5" fill="#fff0cf" opacity="0.85"/>
  </g>
  <text x="196" y="132" font-family="'Avenir Next','Futura','Century Gothic','Nunito',sans-serif"
        font-size="120" font-weight="600" letter-spacing="-3" fill="#1a1816">ember</text>
</svg>
